M48
; DRILL file KiCad 10.0.5 date 2026-09-12T22:35:31
; FORMAT={-:-/ absolute / metric / decimal}
; #@! TF.CreationDate,2026-09-12T22:35:31+08:00
; #@! TF.GenerationSoftware,Kicad,Pcbnew,10.0.5
; #@! TF.FileFunction,Plated,1,2,PTH
FMAT,2
METRIC
; #@! TA.AperFunction,Plated,PTH,ViaDrill
T1C0.300
%
G90
G05
T1
X103.0Y-90.5
X104.5Y-90.0
X106.0Y-95.0
X106.5Y-86.5
X106.5Y-88.0
X106.5Y-89.5
X106.5Y-91.0
X106.892Y-85.432
X107.0Y-81.5
X107.385Y-86.512
X107.5Y-95.0
X107.925Y-90.978
X108.0Y-86.0
X108.0Y-89.0
X108.0Y-90.0
X108.043Y-88.0
X110.5Y-81.5
X111.0Y-88.5
X111.0Y-90.5
X111.1Y-85.5
X111.5Y-95.0
X111.6Y-86.125
X112.223Y-86.627
X113.001Y-87.0
X115.0Y-81.5
X116.0Y-91.0
X116.0Y-95.0
X116.2Y-90.0
X117.0Y-90.0
X117.97Y-90.416
X118.766Y-90.5
X119.027Y-89.473
X119.5Y-81.5
X119.7Y-85.05
X119.874Y-89.932
X120.4Y-90.746
X120.47Y-86.7
X120.5Y-85.5
X120.5Y-95.0
X121.099Y-86.03
X122.2Y-85.371
X122.335Y-86.16
X122.5Y-87.5
X123.4Y-85.324
X124.0Y-95.0
X124.618Y-90.73
X125.038Y-89.638
X125.556Y-88.556
X126.023Y-87.523
X127.0Y-87.0
X127.5Y-83.0
X127.75Y-86.0
X128.0Y-92.0
M30
