%TF.GenerationSoftware,KiCad,Pcbnew,10.0.5*%
%TF.CreationDate,2026-09-12T22:34:43+08:00*%
%TF.ProjectId,RGB888-FPC40-to-FPC45,52474238-3838-42d4-9650-4334302d746f,rev?*%
%TF.SameCoordinates,Original*%
%TF.FileFunction,Soldermask,Bot*%
%TF.FilePolarity,Negative*%
%FSLAX46Y46*%
G04 Gerber Fmt 4.6, Leading zero omitted, Abs format (unit mm)*
G04 Created by KiCad (PCBNEW 10.0.5) date 2026-09-12 22:34:43*
%MOMM*%
%LPD*%
G01*
G04 APERTURE LIST*
%ADD10R,0.300000X1.300000*%
%ADD11R,1.800000X2.200000*%
G04 APERTURE END LIST*
D10*
%TO.C,J2*%
X125500000Y-92500000D03*
X125000000Y-92500000D03*
X124500000Y-92500000D03*
X124000000Y-92500000D03*
X123500000Y-92500000D03*
X123000000Y-92500000D03*
X122500000Y-92500000D03*
X122000000Y-92500000D03*
X121500000Y-92500000D03*
X121000000Y-92500000D03*
X120500000Y-92500000D03*
X120000000Y-92500000D03*
X119500000Y-92500000D03*
X119000000Y-92500000D03*
X118500000Y-92500000D03*
X118000000Y-92500000D03*
X117500000Y-92500000D03*
X117000000Y-92500000D03*
X116500000Y-92500000D03*
X116000000Y-92500000D03*
X115500000Y-92500000D03*
X115000000Y-92500000D03*
X114500000Y-92500000D03*
X114000000Y-92500000D03*
X113500000Y-92500000D03*
X113000000Y-92500000D03*
X112500000Y-92500000D03*
X112000000Y-92500000D03*
X111500000Y-92500000D03*
X111000000Y-92500000D03*
X110500000Y-92500000D03*
X110000000Y-92500000D03*
X109500000Y-92500000D03*
X109000000Y-92500000D03*
X108500000Y-92500000D03*
X108000000Y-92500000D03*
X107500000Y-92500000D03*
X107000000Y-92500000D03*
X106500000Y-92500000D03*
X106000000Y-92500000D03*
X105500000Y-92500000D03*
X105000000Y-92500000D03*
X104500000Y-92500000D03*
X104000000Y-92500000D03*
X103500000Y-92500000D03*
D11*
X127400000Y-95750000D03*
X101600000Y-95750000D03*
%TD*%
M02*
