%TF.GenerationSoftware,KiCad,Pcbnew,10.0.5*%
%TF.CreationDate,2026-09-12T22:34:43+08:00*%
%TF.ProjectId,RGB888-FPC40-to-FPC45,52474238-3838-42d4-9650-4334302d746f,rev?*%
%TF.SameCoordinates,Original*%
%TF.FileFunction,Legend,Top*%
%TF.FilePolarity,Positive*%
%FSLAX46Y46*%
G04 Gerber Fmt 4.6, Leading zero omitted, Abs format (unit mm)*
G04 Created by KiCad (PCBNEW 10.0.5) date 2026-09-12 22:34:43*
%MOMM*%
%LPD*%
G01*
G04 APERTURE LIST*
%ADD10C,0.100000*%
%ADD11C,0.250000*%
%ADD12C,0.150000*%
%ADD13C,0.120000*%
G04 APERTURE END LIST*
D10*
G36*
X117634017Y-96439929D02*
G01*
X117667552Y-96473465D01*
X117706264Y-96550888D01*
X117706264Y-96670138D01*
X117667552Y-96747561D01*
X117631406Y-96783708D01*
X117553985Y-96822419D01*
X117234836Y-96822419D01*
X117234836Y-96398609D01*
X117510056Y-96398609D01*
X117634017Y-96439929D01*
G37*
G36*
X117583789Y-95961130D02*
G01*
X117619933Y-95997275D01*
X117658645Y-96074698D01*
X117658645Y-96146329D01*
X117619933Y-96223752D01*
X117583789Y-96259897D01*
X117506366Y-96298609D01*
X117234836Y-96298609D01*
X117234836Y-95922419D01*
X117506366Y-95922419D01*
X117583789Y-95961130D01*
G37*
G36*
X118583789Y-96389701D02*
G01*
X118619933Y-96425846D01*
X118658645Y-96503269D01*
X118658645Y-96670138D01*
X118619933Y-96747561D01*
X118583787Y-96783708D01*
X118506366Y-96822419D01*
X118339497Y-96822419D01*
X118262074Y-96783708D01*
X118225928Y-96747561D01*
X118187217Y-96670139D01*
X118187217Y-96503269D01*
X118225928Y-96425845D01*
X118262073Y-96389701D01*
X118339497Y-96350990D01*
X118506366Y-96350990D01*
X118583789Y-96389701D01*
G37*
G36*
X118583789Y-95961130D02*
G01*
X118619933Y-95997275D01*
X118658645Y-96074698D01*
X118658645Y-96098710D01*
X118619933Y-96176133D01*
X118583789Y-96212278D01*
X118506366Y-96250990D01*
X118339497Y-96250990D01*
X118262073Y-96212278D01*
X118225928Y-96176134D01*
X118187217Y-96098711D01*
X118187217Y-96074698D01*
X118225928Y-95997274D01*
X118262073Y-95961130D01*
X118339497Y-95922419D01*
X118506366Y-95922419D01*
X118583789Y-95961130D01*
G37*
G36*
X119536170Y-96389701D02*
G01*
X119572314Y-96425846D01*
X119611026Y-96503269D01*
X119611026Y-96670138D01*
X119572314Y-96747561D01*
X119536168Y-96783708D01*
X119458747Y-96822419D01*
X119291878Y-96822419D01*
X119214455Y-96783708D01*
X119178309Y-96747561D01*
X119139598Y-96670139D01*
X119139598Y-96503269D01*
X119178309Y-96425845D01*
X119214454Y-96389701D01*
X119291878Y-96350990D01*
X119458747Y-96350990D01*
X119536170Y-96389701D01*
G37*
G36*
X119536170Y-95961130D02*
G01*
X119572314Y-95997275D01*
X119611026Y-96074698D01*
X119611026Y-96098710D01*
X119572314Y-96176133D01*
X119536170Y-96212278D01*
X119458747Y-96250990D01*
X119291878Y-96250990D01*
X119214454Y-96212278D01*
X119178309Y-96176134D01*
X119139598Y-96098711D01*
X119139598Y-96074698D01*
X119178309Y-95997274D01*
X119214454Y-95961130D01*
X119291878Y-95922419D01*
X119458747Y-95922419D01*
X119536170Y-95961130D01*
G37*
G36*
X120488551Y-96389701D02*
G01*
X120524695Y-96425846D01*
X120563407Y-96503269D01*
X120563407Y-96670138D01*
X120524695Y-96747561D01*
X120488549Y-96783708D01*
X120411128Y-96822419D01*
X120244259Y-96822419D01*
X120166836Y-96783708D01*
X120130690Y-96747561D01*
X120091979Y-96670139D01*
X120091979Y-96503269D01*
X120130690Y-96425845D01*
X120166835Y-96389701D01*
X120244259Y-96350990D01*
X120411128Y-96350990D01*
X120488551Y-96389701D01*
G37*
G36*
X120488551Y-95961130D02*
G01*
X120524695Y-95997275D01*
X120563407Y-96074698D01*
X120563407Y-96098710D01*
X120524695Y-96176133D01*
X120488551Y-96212278D01*
X120411128Y-96250990D01*
X120244259Y-96250990D01*
X120166835Y-96212278D01*
X120130690Y-96176134D01*
X120091979Y-96098711D01*
X120091979Y-96074698D01*
X120130690Y-95997274D01*
X120166835Y-95961130D01*
X120244259Y-95922419D01*
X120411128Y-95922419D01*
X120488551Y-95961130D01*
G37*
G36*
X109163084Y-96536704D02*
G01*
X108825636Y-96536704D01*
X108994360Y-96030532D01*
X109163084Y-96536704D01*
G37*
G36*
X110107599Y-95961130D02*
G01*
X110143743Y-95997275D01*
X110182455Y-96074698D01*
X110182455Y-96193948D01*
X110143743Y-96271371D01*
X110107599Y-96307516D01*
X110030176Y-96346228D01*
X109711027Y-96346228D01*
X109711027Y-95922419D01*
X110030176Y-95922419D01*
X110107599Y-95961130D01*
G37*
G36*
X115631408Y-95961130D02*
G01*
X115667552Y-95997275D01*
X115706264Y-96074698D01*
X115706264Y-96193948D01*
X115667552Y-96271371D01*
X115631408Y-96307516D01*
X115553985Y-96346228D01*
X115234836Y-96346228D01*
X115234836Y-95922419D01*
X115553985Y-95922419D01*
X115631408Y-95961130D01*
G37*
G36*
X113107599Y-95961130D02*
G01*
X113143743Y-95997275D01*
X113182455Y-96074698D01*
X113182455Y-96193948D01*
X113143743Y-96271371D01*
X113107599Y-96307516D01*
X113030176Y-96346228D01*
X112711027Y-96346228D01*
X112711027Y-95922419D01*
X113030176Y-95922419D01*
X113107599Y-95961130D01*
G37*
G36*
X120774518Y-97270674D02*
G01*
X108500042Y-97270674D01*
X108500042Y-97100811D01*
X113945311Y-97100811D01*
X113952816Y-97138336D01*
X113984657Y-97159563D01*
X114022182Y-97152058D01*
X114035963Y-97138249D01*
X114879849Y-95872419D01*
X115134836Y-95872419D01*
X115134836Y-96872419D01*
X115138642Y-96891553D01*
X115165702Y-96918613D01*
X115203970Y-96918613D01*
X115231030Y-96891553D01*
X115234836Y-96872419D01*
X115234836Y-96446228D01*
X115396898Y-96446228D01*
X115715302Y-96901092D01*
X115729393Y-96914585D01*
X115767079Y-96921235D01*
X115798430Y-96899290D01*
X115805080Y-96861604D01*
X115797226Y-96843746D01*
X115518964Y-96446228D01*
X115565788Y-96446228D01*
X115568244Y-96445739D01*
X115569333Y-96446102D01*
X115577060Y-96443985D01*
X115584922Y-96442422D01*
X115585733Y-96441610D01*
X115588149Y-96440949D01*
X115683386Y-96393331D01*
X115689719Y-96388415D01*
X115696381Y-96383964D01*
X115744000Y-96336346D01*
X115748454Y-96329679D01*
X115753366Y-96323351D01*
X115764547Y-96300990D01*
X116087217Y-96300990D01*
X116087217Y-96443847D01*
X116088412Y-96449856D01*
X116088710Y-96455974D01*
X116136329Y-96646450D01*
X116138668Y-96651402D01*
X116140115Y-96656684D01*
X116187733Y-96751921D01*
X116192644Y-96758249D01*
X116197099Y-96764916D01*
X116292338Y-96860155D01*
X116294419Y-96861545D01*
X116294933Y-96862573D01*
X116301898Y-96866543D01*
X116308559Y-96870994D01*
X116309707Y-96870994D01*
X116311882Y-96872234D01*
X116454738Y-96919853D01*
X116462688Y-96920855D01*
X116470550Y-96922419D01*
X116565788Y-96922419D01*
X116573650Y-96920855D01*
X116581599Y-96919853D01*
X116724456Y-96872234D01*
X116726631Y-96870994D01*
X116727780Y-96870994D01*
X116734450Y-96866536D01*
X116741404Y-96862573D01*
X116741916Y-96861547D01*
X116744001Y-96860155D01*
X116791620Y-96812535D01*
X116802458Y-96796314D01*
X116806264Y-96777180D01*
X116806264Y-96443847D01*
X116802458Y-96424713D01*
X116775398Y-96397653D01*
X116756264Y-96393847D01*
X116565788Y-96393847D01*
X116546654Y-96397653D01*
X116519594Y-96424713D01*
X116519594Y-96462981D01*
X116546654Y-96490041D01*
X116565788Y-96493847D01*
X116706264Y-96493847D01*
X116706264Y-96756469D01*
X116681635Y-96781098D01*
X116557675Y-96822419D01*
X116478663Y-96822419D01*
X116354703Y-96781099D01*
X116273547Y-96699942D01*
X116232012Y-96616872D01*
X116187217Y-96437692D01*
X116187217Y-96307145D01*
X116232012Y-96127965D01*
X116273548Y-96044893D01*
X116354701Y-95963739D01*
X116478663Y-95922419D01*
X116601604Y-95922419D01*
X116686284Y-95964759D01*
X116705100Y-95969912D01*
X116741405Y-95957810D01*
X116758519Y-95923582D01*
X116746417Y-95887278D01*
X116731005Y-95875316D01*
X116725211Y-95872419D01*
X117134836Y-95872419D01*
X117134836Y-96872419D01*
X117138642Y-96891553D01*
X117165702Y-96918613D01*
X117184836Y-96922419D01*
X117565788Y-96922419D01*
X117568244Y-96921930D01*
X117569333Y-96922293D01*
X117577060Y-96920176D01*
X117584922Y-96918613D01*
X117585733Y-96917801D01*
X117588149Y-96917140D01*
X117683386Y-96869522D01*
X117689713Y-96864611D01*
X117696382Y-96860155D01*
X117744001Y-96812535D01*
X117748454Y-96805869D01*
X117753366Y-96799541D01*
X117800985Y-96704303D01*
X117801646Y-96701887D01*
X117802458Y-96701076D01*
X117804021Y-96693214D01*
X117806138Y-96685487D01*
X117805775Y-96684398D01*
X117806264Y-96681942D01*
X117806264Y-96539085D01*
X117805775Y-96536628D01*
X117806138Y-96535540D01*
X117804021Y-96527812D01*
X117802458Y-96519951D01*
X117801646Y-96519139D01*
X117800985Y-96516724D01*
X117753366Y-96421486D01*
X117748454Y-96415157D01*
X117744000Y-96408491D01*
X117696381Y-96360873D01*
X117694298Y-96359481D01*
X117693785Y-96358455D01*
X117686824Y-96354487D01*
X117680160Y-96350034D01*
X117679012Y-96350034D01*
X117676837Y-96348794D01*
X117645676Y-96338407D01*
X117648762Y-96336345D01*
X117696381Y-96288727D01*
X117700835Y-96282060D01*
X117705747Y-96275732D01*
X117753366Y-96180494D01*
X117754027Y-96178078D01*
X117754839Y-96177267D01*
X117756402Y-96169405D01*
X117758519Y-96161678D01*
X117758156Y-96160589D01*
X117758645Y-96158133D01*
X117758645Y-96062895D01*
X118087217Y-96062895D01*
X118087217Y-96110514D01*
X118087705Y-96112970D01*
X118087343Y-96114059D01*
X118089459Y-96121786D01*
X118091023Y-96129648D01*
X118091834Y-96130459D01*
X118092496Y-96132875D01*
X118140114Y-96228112D01*
X118145029Y-96234445D01*
X118149481Y-96241107D01*
X118197099Y-96288726D01*
X118203765Y-96293180D01*
X118210094Y-96298092D01*
X118215890Y-96300990D01*
X118210094Y-96303888D01*
X118203765Y-96308799D01*
X118197099Y-96313254D01*
X118149481Y-96360873D01*
X118145029Y-96367534D01*
X118140114Y-96373868D01*
X118092496Y-96469105D01*
X118091834Y-96471520D01*
X118091023Y-96472332D01*
X118089459Y-96480193D01*
X118087343Y-96487921D01*
X118087705Y-96489009D01*
X118087217Y-96491466D01*
X118087217Y-96681942D01*
X118087705Y-96684398D01*
X118087343Y-96685487D01*
X118089459Y-96693214D01*
X118091023Y-96701076D01*
X118091834Y-96701887D01*
X118092496Y-96704303D01*
X118140114Y-96799540D01*
X118145025Y-96805868D01*
X118149480Y-96812535D01*
X118197099Y-96860155D01*
X118203765Y-96864609D01*
X118210094Y-96869521D01*
X118305332Y-96917140D01*
X118307747Y-96917801D01*
X118308559Y-96918613D01*
X118316420Y-96920176D01*
X118324148Y-96922293D01*
X118325236Y-96921930D01*
X118327693Y-96922419D01*
X118518169Y-96922419D01*
X118520625Y-96921930D01*
X118521714Y-96922293D01*
X118529441Y-96920176D01*
X118537303Y-96918613D01*
X118538114Y-96917801D01*
X118540530Y-96917140D01*
X118635767Y-96869522D01*
X118642094Y-96864611D01*
X118648763Y-96860155D01*
X118696382Y-96812535D01*
X118700835Y-96805869D01*
X118705747Y-96799541D01*
X118753366Y-96704303D01*
X118754027Y-96701887D01*
X118754839Y-96701076D01*
X118756402Y-96693214D01*
X118758519Y-96685487D01*
X118758156Y-96684398D01*
X118758645Y-96681942D01*
X118758645Y-96491466D01*
X118758156Y-96489009D01*
X118758519Y-96487921D01*
X118756402Y-96480193D01*
X118754839Y-96472332D01*
X118754027Y-96471520D01*
X118753366Y-96469105D01*
X118705747Y-96373867D01*
X118700835Y-96367538D01*
X118696381Y-96360872D01*
X118648762Y-96313254D01*
X118642100Y-96308802D01*
X118635767Y-96303887D01*
X118629972Y-96300990D01*
X118635767Y-96298093D01*
X118642100Y-96293177D01*
X118648762Y-96288726D01*
X118696381Y-96241108D01*
X118700835Y-96234441D01*
X118705747Y-96228113D01*
X118753366Y-96132875D01*
X118754027Y-96130459D01*
X118754839Y-96129648D01*
X118756402Y-96121786D01*
X118758519Y-96114059D01*
X118758156Y-96112970D01*
X118758645Y-96110514D01*
X118758645Y-96062895D01*
X119039598Y-96062895D01*
X119039598Y-96110514D01*
X119040086Y-96112970D01*
X119039724Y-96114059D01*
X119041840Y-96121786D01*
X119043404Y-96129648D01*
X119044215Y-96130459D01*
X119044877Y-96132875D01*
X119092495Y-96228112D01*
X119097410Y-96234445D01*
X119101862Y-96241107D01*
X119149480Y-96288726D01*
X119156146Y-96293180D01*
X119162475Y-96298092D01*
X119168271Y-96300990D01*
X119162475Y-96303888D01*
X119156146Y-96308799D01*
X119149480Y-96313254D01*
X119101862Y-96360873D01*
X119097410Y-96367534D01*
X119092495Y-96373868D01*
X119044877Y-96469105D01*
X119044215Y-96471520D01*
X119043404Y-96472332D01*
X119041840Y-96480193D01*
X119039724Y-96487921D01*
X119040086Y-96489009D01*
X119039598Y-96491466D01*
X119039598Y-96681942D01*
X119040086Y-96684398D01*
X119039724Y-96685487D01*
X119041840Y-96693214D01*
X119043404Y-96701076D01*
X119044215Y-96701887D01*
X119044877Y-96704303D01*
X119092495Y-96799540D01*
X119097406Y-96805868D01*
X119101861Y-96812535D01*
X119149480Y-96860155D01*
X119156146Y-96864609D01*
X119162475Y-96869521D01*
X119257713Y-96917140D01*
X119260128Y-96917801D01*
X119260940Y-96918613D01*
X119268801Y-96920176D01*
X119276529Y-96922293D01*
X119277617Y-96921930D01*
X119280074Y-96922419D01*
X119470550Y-96922419D01*
X119473006Y-96921930D01*
X119474095Y-96922293D01*
X119481822Y-96920176D01*
X119489684Y-96918613D01*
X119490495Y-96917801D01*
X119492911Y-96917140D01*
X119588148Y-96869522D01*
X119594475Y-96864611D01*
X119601144Y-96860155D01*
X119648763Y-96812535D01*
X119653216Y-96805869D01*
X119658128Y-96799541D01*
X119705747Y-96704303D01*
X119706408Y-96701887D01*
X119707220Y-96701076D01*
X119708783Y-96693214D01*
X119710900Y-96685487D01*
X119710537Y-96684398D01*
X119711026Y-96681942D01*
X119711026Y-96491466D01*
X119710537Y-96489009D01*
X119710900Y-96487921D01*
X119708783Y-96480193D01*
X119707220Y-96472332D01*
X119706408Y-96471520D01*
X119705747Y-96469105D01*
X119658128Y-96373867D01*
X119653216Y-96367538D01*
X119648762Y-96360872D01*
X119601143Y-96313254D01*
X119594481Y-96308802D01*
X119588148Y-96303887D01*
X119582353Y-96300990D01*
X119588148Y-96298093D01*
X119594481Y-96293177D01*
X119601143Y-96288726D01*
X119648762Y-96241108D01*
X119653216Y-96234441D01*
X119658128Y-96228113D01*
X119705747Y-96132875D01*
X119706408Y-96130459D01*
X119707220Y-96129648D01*
X119708783Y-96121786D01*
X119710900Y-96114059D01*
X119710537Y-96112970D01*
X119711026Y-96110514D01*
X119711026Y-96062895D01*
X119991979Y-96062895D01*
X119991979Y-96110514D01*
X119992467Y-96112970D01*
X119992105Y-96114059D01*
X119994221Y-96121786D01*
X119995785Y-96129648D01*
X119996596Y-96130459D01*
X119997258Y-96132875D01*
X120044876Y-96228112D01*
X120049791Y-96234445D01*
X120054243Y-96241107D01*
X120101861Y-96288726D01*
X120108527Y-96293180D01*
X120114856Y-96298092D01*
X120120652Y-96300990D01*
X120114856Y-96303888D01*
X120108527Y-96308799D01*
X120101861Y-96313254D01*
X120054243Y-96360873D01*
X120049791Y-96367534D01*
X120044876Y-96373868D01*
X119997258Y-96469105D01*
X119996596Y-96471520D01*
X119995785Y-96472332D01*
X119994221Y-96480193D01*
X119992105Y-96487921D01*
X119992467Y-96489009D01*
X119991979Y-96491466D01*
X119991979Y-96681942D01*
X119992467Y-96684398D01*
X119992105Y-96685487D01*
X119994221Y-96693214D01*
X119995785Y-96701076D01*
X119996596Y-96701887D01*
X119997258Y-96704303D01*
X120044876Y-96799540D01*
X120049787Y-96805868D01*
X120054242Y-96812535D01*
X120101861Y-96860155D01*
X120108527Y-96864609D01*
X120114856Y-96869521D01*
X120210094Y-96917140D01*
X120212509Y-96917801D01*
X120213321Y-96918613D01*
X120221182Y-96920176D01*
X120228910Y-96922293D01*
X120229998Y-96921930D01*
X120232455Y-96922419D01*
X120422931Y-96922419D01*
X120425387Y-96921930D01*
X120426476Y-96922293D01*
X120434203Y-96920176D01*
X120442065Y-96918613D01*
X120442876Y-96917801D01*
X120445292Y-96917140D01*
X120540529Y-96869522D01*
X120546856Y-96864611D01*
X120553525Y-96860155D01*
X120601144Y-96812535D01*
X120605597Y-96805869D01*
X120610509Y-96799541D01*
X120658128Y-96704303D01*
X120658789Y-96701887D01*
X120659601Y-96701076D01*
X120661164Y-96693214D01*
X120663281Y-96685487D01*
X120662918Y-96684398D01*
X120663407Y-96681942D01*
X120663407Y-96491466D01*
X120662918Y-96489009D01*
X120663281Y-96487921D01*
X120661164Y-96480193D01*
X120659601Y-96472332D01*
X120658789Y-96471520D01*
X120658128Y-96469105D01*
X120610509Y-96373867D01*
X120605597Y-96367538D01*
X120601143Y-96360872D01*
X120553524Y-96313254D01*
X120546862Y-96308802D01*
X120540529Y-96303887D01*
X120534734Y-96300990D01*
X120540529Y-96298093D01*
X120546862Y-96293177D01*
X120553524Y-96288726D01*
X120601143Y-96241108D01*
X120605597Y-96234441D01*
X120610509Y-96228113D01*
X120658128Y-96132875D01*
X120658789Y-96130459D01*
X120659601Y-96129648D01*
X120661164Y-96121786D01*
X120663281Y-96114059D01*
X120662918Y-96112970D01*
X120663407Y-96110514D01*
X120663407Y-96062895D01*
X120662918Y-96060438D01*
X120663281Y-96059350D01*
X120661164Y-96051622D01*
X120659601Y-96043761D01*
X120658789Y-96042949D01*
X120658128Y-96040534D01*
X120610509Y-95945296D01*
X120605597Y-95938967D01*
X120601143Y-95932301D01*
X120553524Y-95884683D01*
X120546862Y-95880231D01*
X120540529Y-95875316D01*
X120445292Y-95827698D01*
X120442876Y-95827036D01*
X120442065Y-95826225D01*
X120434203Y-95824661D01*
X120426476Y-95822545D01*
X120425387Y-95822907D01*
X120422931Y-95822419D01*
X120232455Y-95822419D01*
X120229998Y-95822907D01*
X120228910Y-95822545D01*
X120221182Y-95824661D01*
X120213321Y-95826225D01*
X120212509Y-95827036D01*
X120210094Y-95827698D01*
X120114856Y-95875317D01*
X120108527Y-95880228D01*
X120101861Y-95884683D01*
X120054243Y-95932302D01*
X120049791Y-95938963D01*
X120044876Y-95945297D01*
X119997258Y-96040534D01*
X119996596Y-96042949D01*
X119995785Y-96043761D01*
X119994221Y-96051622D01*
X119992105Y-96059350D01*
X119992467Y-96060438D01*
X119991979Y-96062895D01*
X119711026Y-96062895D01*
X119710537Y-96060438D01*
X119710900Y-96059350D01*
X119708783Y-96051622D01*
X119707220Y-96043761D01*
X119706408Y-96042949D01*
X119705747Y-96040534D01*
X119658128Y-95945296D01*
X119653216Y-95938967D01*
X119648762Y-95932301D01*
X119601143Y-95884683D01*
X119594481Y-95880231D01*
X119588148Y-95875316D01*
X119492911Y-95827698D01*
X119490495Y-95827036D01*
X119489684Y-95826225D01*
X119481822Y-95824661D01*
X119474095Y-95822545D01*
X119473006Y-95822907D01*
X119470550Y-95822419D01*
X119280074Y-95822419D01*
X119277617Y-95822907D01*
X119276529Y-95822545D01*
X119268801Y-95824661D01*
X119260940Y-95826225D01*
X119260128Y-95827036D01*
X119257713Y-95827698D01*
X119162475Y-95875317D01*
X119156146Y-95880228D01*
X119149480Y-95884683D01*
X119101862Y-95932302D01*
X119097410Y-95938963D01*
X119092495Y-95945297D01*
X119044877Y-96040534D01*
X119044215Y-96042949D01*
X119043404Y-96043761D01*
X119041840Y-96051622D01*
X119039724Y-96059350D01*
X119040086Y-96060438D01*
X119039598Y-96062895D01*
X118758645Y-96062895D01*
X118758156Y-96060438D01*
X118758519Y-96059350D01*
X118756402Y-96051622D01*
X118754839Y-96043761D01*
X118754027Y-96042949D01*
X118753366Y-96040534D01*
X118705747Y-95945296D01*
X118700835Y-95938967D01*
X118696381Y-95932301D01*
X118648762Y-95884683D01*
X118642100Y-95880231D01*
X118635767Y-95875316D01*
X118540530Y-95827698D01*
X118538114Y-95827036D01*
X118537303Y-95826225D01*
X118529441Y-95824661D01*
X118521714Y-95822545D01*
X118520625Y-95822907D01*
X118518169Y-95822419D01*
X118327693Y-95822419D01*
X118325236Y-95822907D01*
X118324148Y-95822545D01*
X118316420Y-95824661D01*
X118308559Y-95826225D01*
X118307747Y-95827036D01*
X118305332Y-95827698D01*
X118210094Y-95875317D01*
X118203765Y-95880228D01*
X118197099Y-95884683D01*
X118149481Y-95932302D01*
X118145029Y-95938963D01*
X118140114Y-95945297D01*
X118092496Y-96040534D01*
X118091834Y-96042949D01*
X118091023Y-96043761D01*
X118089459Y-96051622D01*
X118087343Y-96059350D01*
X118087705Y-96060438D01*
X118087217Y-96062895D01*
X117758645Y-96062895D01*
X117758156Y-96060438D01*
X117758519Y-96059350D01*
X117756402Y-96051622D01*
X117754839Y-96043761D01*
X117754027Y-96042949D01*
X117753366Y-96040534D01*
X117705747Y-95945296D01*
X117700835Y-95938967D01*
X117696381Y-95932301D01*
X117648762Y-95884683D01*
X117642100Y-95880231D01*
X117635767Y-95875316D01*
X117540530Y-95827698D01*
X117538114Y-95827036D01*
X117537303Y-95826225D01*
X117529441Y-95824661D01*
X117521714Y-95822545D01*
X117520625Y-95822907D01*
X117518169Y-95822419D01*
X117184836Y-95822419D01*
X117165702Y-95826225D01*
X117138642Y-95853285D01*
X117134836Y-95872419D01*
X116725211Y-95872419D01*
X116635768Y-95827698D01*
X116633352Y-95827036D01*
X116632541Y-95826225D01*
X116624679Y-95824661D01*
X116616952Y-95822545D01*
X116615863Y-95822907D01*
X116613407Y-95822419D01*
X116470550Y-95822419D01*
X116462688Y-95823982D01*
X116454738Y-95824985D01*
X116311882Y-95872604D01*
X116309707Y-95873844D01*
X116308559Y-95873844D01*
X116301898Y-95878294D01*
X116294933Y-95882265D01*
X116294419Y-95883292D01*
X116292338Y-95884683D01*
X116197100Y-95979921D01*
X116192648Y-95986582D01*
X116187733Y-95992916D01*
X116140115Y-96088153D01*
X116138668Y-96093434D01*
X116136329Y-96098387D01*
X116088710Y-96288863D01*
X116088412Y-96294980D01*
X116087217Y-96300990D01*
X115764547Y-96300990D01*
X115800985Y-96228113D01*
X115801646Y-96225697D01*
X115802458Y-96224886D01*
X115804021Y-96217024D01*
X115806138Y-96209297D01*
X115805775Y-96208208D01*
X115806264Y-96205752D01*
X115806264Y-96062895D01*
X115805775Y-96060438D01*
X115806138Y-96059350D01*
X115804021Y-96051622D01*
X115802458Y-96043761D01*
X115801646Y-96042949D01*
X115800985Y-96040534D01*
X115753366Y-95945296D01*
X115748454Y-95938967D01*
X115744000Y-95932301D01*
X115696381Y-95884683D01*
X115689719Y-95880231D01*
X115683386Y-95875316D01*
X115588149Y-95827698D01*
X115585733Y-95827036D01*
X115584922Y-95826225D01*
X115577060Y-95824661D01*
X115569333Y-95822545D01*
X115568244Y-95822907D01*
X115565788Y-95822419D01*
X115184836Y-95822419D01*
X115165702Y-95826225D01*
X115138642Y-95853285D01*
X115134836Y-95872419D01*
X114879849Y-95872419D01*
X114893105Y-95852535D01*
X114900552Y-95834503D01*
X114893047Y-95796978D01*
X114861206Y-95775750D01*
X114823680Y-95783255D01*
X114809900Y-95797065D01*
X113952757Y-97082779D01*
X113945311Y-97100811D01*
X108500042Y-97100811D01*
X108500042Y-96875963D01*
X108611153Y-96875963D01*
X108628267Y-96910192D01*
X108664571Y-96922293D01*
X108698800Y-96905179D01*
X108708461Y-96888230D01*
X108792303Y-96636704D01*
X109196417Y-96636704D01*
X109280259Y-96888230D01*
X109289920Y-96905178D01*
X109324149Y-96922293D01*
X109360453Y-96910191D01*
X109377567Y-96875963D01*
X109375127Y-96856607D01*
X109047064Y-95872419D01*
X109611027Y-95872419D01*
X109611027Y-96872419D01*
X109614833Y-96891553D01*
X109641893Y-96918613D01*
X109680161Y-96918613D01*
X109707221Y-96891553D01*
X109711027Y-96872419D01*
X109711027Y-96446228D01*
X109873089Y-96446228D01*
X110191493Y-96901092D01*
X110205584Y-96914585D01*
X110243270Y-96921235D01*
X110274621Y-96899290D01*
X110281271Y-96861604D01*
X110273417Y-96843746D01*
X109995155Y-96446228D01*
X110041979Y-96446228D01*
X110044435Y-96445739D01*
X110045524Y-96446102D01*
X110053251Y-96443985D01*
X110061113Y-96442422D01*
X110061924Y-96441610D01*
X110064340Y-96440949D01*
X110159577Y-96393331D01*
X110165910Y-96388415D01*
X110172572Y-96383964D01*
X110220191Y-96336346D01*
X110224645Y-96329679D01*
X110229557Y-96323351D01*
X110277176Y-96228113D01*
X110277837Y-96225697D01*
X110278649Y-96224886D01*
X110280212Y-96217024D01*
X110282329Y-96209297D01*
X110281966Y-96208208D01*
X110282455Y-96205752D01*
X110282455Y-96062895D01*
X110281966Y-96060438D01*
X110282329Y-96059350D01*
X110280212Y-96051622D01*
X110278649Y-96043761D01*
X110277837Y-96042949D01*
X110277176Y-96040534D01*
X110229557Y-95945296D01*
X110224645Y-95938967D01*
X110220191Y-95932301D01*
X110172572Y-95884683D01*
X110165910Y-95880231D01*
X110159577Y-95875316D01*
X110115515Y-95853285D01*
X110471976Y-95853285D01*
X110471976Y-95891553D01*
X110499036Y-95918613D01*
X110518170Y-95922419D01*
X110753884Y-95922419D01*
X110753884Y-96872419D01*
X110757690Y-96891553D01*
X110784750Y-96918613D01*
X110823018Y-96918613D01*
X110850078Y-96891553D01*
X110853884Y-96872419D01*
X110853884Y-96472332D01*
X111376738Y-96472332D01*
X111376738Y-96510600D01*
X111403798Y-96537660D01*
X111422932Y-96541466D01*
X112184837Y-96541466D01*
X112203971Y-96537660D01*
X112231031Y-96510600D01*
X112231031Y-96472332D01*
X112203971Y-96445272D01*
X112184837Y-96441466D01*
X111422932Y-96441466D01*
X111403798Y-96445272D01*
X111376738Y-96472332D01*
X110853884Y-96472332D01*
X110853884Y-95922419D01*
X111089598Y-95922419D01*
X111108732Y-95918613D01*
X111135792Y-95891553D01*
X111135792Y-95872419D01*
X112611027Y-95872419D01*
X112611027Y-96872419D01*
X112614833Y-96891553D01*
X112641893Y-96918613D01*
X112680161Y-96918613D01*
X112707221Y-96891553D01*
X112711027Y-96872419D01*
X112711027Y-96446228D01*
X113041979Y-96446228D01*
X113044435Y-96445739D01*
X113045524Y-96446102D01*
X113053251Y-96443985D01*
X113061113Y-96442422D01*
X113061924Y-96441610D01*
X113064340Y-96440949D01*
X113159577Y-96393331D01*
X113165910Y-96388415D01*
X113172572Y-96383964D01*
X113220191Y-96336346D01*
X113224645Y-96329679D01*
X113229557Y-96323351D01*
X113277176Y-96228113D01*
X113277837Y-96225697D01*
X113278649Y-96224886D01*
X113280212Y-96217024D01*
X113282329Y-96209297D01*
X113281966Y-96208208D01*
X113282455Y-96205752D01*
X113282455Y-96062895D01*
X113281966Y-96060438D01*
X113282329Y-96059350D01*
X113280212Y-96051622D01*
X113278649Y-96043761D01*
X113277837Y-96042949D01*
X113277176Y-96040534D01*
X113229557Y-95945296D01*
X113224645Y-95938967D01*
X113220191Y-95932301D01*
X113172572Y-95884683D01*
X113165910Y-95880231D01*
X113159577Y-95875316D01*
X113153783Y-95872419D01*
X113611027Y-95872419D01*
X113611027Y-96872419D01*
X113614833Y-96891553D01*
X113641893Y-96918613D01*
X113680161Y-96918613D01*
X113707221Y-96891553D01*
X113711027Y-96872419D01*
X113711027Y-95872419D01*
X113707221Y-95853285D01*
X113680161Y-95826225D01*
X113641893Y-95826225D01*
X113614833Y-95853285D01*
X113611027Y-95872419D01*
X113153783Y-95872419D01*
X113064340Y-95827698D01*
X113061924Y-95827036D01*
X113061113Y-95826225D01*
X113053251Y-95824661D01*
X113045524Y-95822545D01*
X113044435Y-95822907D01*
X113041979Y-95822419D01*
X112661027Y-95822419D01*
X112641893Y-95826225D01*
X112614833Y-95853285D01*
X112611027Y-95872419D01*
X111135792Y-95872419D01*
X111135792Y-95853285D01*
X111108732Y-95826225D01*
X111089598Y-95822419D01*
X110518170Y-95822419D01*
X110499036Y-95826225D01*
X110471976Y-95853285D01*
X110115515Y-95853285D01*
X110064340Y-95827698D01*
X110061924Y-95827036D01*
X110061113Y-95826225D01*
X110053251Y-95824661D01*
X110045524Y-95822545D01*
X110044435Y-95822907D01*
X110041979Y-95822419D01*
X109661027Y-95822419D01*
X109641893Y-95826225D01*
X109614833Y-95853285D01*
X109611027Y-95872419D01*
X109047064Y-95872419D01*
X109041794Y-95856608D01*
X109032133Y-95839659D01*
X109028790Y-95837987D01*
X109027120Y-95834647D01*
X109012083Y-95829634D01*
X108997904Y-95822545D01*
X108994359Y-95823726D01*
X108990816Y-95822545D01*
X108976642Y-95829632D01*
X108961600Y-95834646D01*
X108959928Y-95837989D01*
X108956587Y-95839660D01*
X108946926Y-95856608D01*
X108613593Y-96856608D01*
X108611153Y-96875963D01*
X108500042Y-96875963D01*
X108500042Y-95664639D01*
X120774518Y-95664639D01*
X120774518Y-97270674D01*
G37*
D11*
G36*
X101600076Y-85500697D02*
G01*
X101600076Y-85224092D01*
X101283538Y-85224092D01*
X101283538Y-85460397D01*
X101146762Y-85460397D01*
X101146762Y-85224092D01*
X100670000Y-85224092D01*
X100670000Y-85064235D01*
X101740760Y-85064235D01*
X101740760Y-85500697D01*
X101600076Y-85500697D01*
G37*
G36*
X101740760Y-86010554D02*
G01*
X101734590Y-86056149D01*
X101718588Y-86084907D01*
X101693500Y-86101941D01*
X101656069Y-86108190D01*
X101141571Y-86108190D01*
X101104140Y-86101941D01*
X101079053Y-86084907D01*
X101063050Y-86056149D01*
X101056880Y-86010554D01*
X101056880Y-85946990D01*
X101193656Y-85946990D01*
X101603984Y-85946990D01*
X101603984Y-85751657D01*
X101193656Y-85751657D01*
X101193656Y-85946990D01*
X101056880Y-85946990D01*
X101056880Y-85751657D01*
X100670000Y-85751657D01*
X100670000Y-85591800D01*
X101740760Y-85591800D01*
X101740760Y-86010554D01*
G37*
G36*
X100754691Y-86747923D02*
G01*
X100717264Y-86741672D01*
X100692176Y-86724631D01*
X100676172Y-86695854D01*
X100670000Y-86650226D01*
X100670000Y-86316896D01*
X100676095Y-86272785D01*
X100691974Y-86244801D01*
X100717048Y-86228104D01*
X100754691Y-86221946D01*
X101656069Y-86221946D01*
X101693711Y-86228104D01*
X101718785Y-86244801D01*
X101734665Y-86272785D01*
X101740760Y-86316896D01*
X101740760Y-86650226D01*
X101734588Y-86695854D01*
X101718583Y-86724631D01*
X101693496Y-86741672D01*
X101656069Y-86747923D01*
X101389050Y-86747923D01*
X101389050Y-86588738D01*
X101603984Y-86588738D01*
X101603984Y-86381803D01*
X100806775Y-86381803D01*
X100806775Y-86588738D01*
X101029525Y-86588738D01*
X101029525Y-86747923D01*
X100754691Y-86747923D01*
G37*
G36*
X100873210Y-87418004D02*
G01*
X100873210Y-87336732D01*
X100670000Y-87336732D01*
X100670000Y-87184385D01*
X100873210Y-87184385D01*
X100873210Y-86833286D01*
X100968159Y-86833286D01*
X101740760Y-87099023D01*
X101740760Y-87261566D01*
X101734593Y-87261566D01*
X101009986Y-87012255D01*
X101009986Y-87184385D01*
X101330432Y-87184385D01*
X101330432Y-87336732D01*
X101009986Y-87336732D01*
X101009986Y-87418004D01*
X100873210Y-87418004D01*
G37*
G36*
X101693553Y-87516798D02*
G01*
X101718637Y-87533748D01*
X101734608Y-87562313D01*
X101740760Y-87607536D01*
X101740760Y-87938852D01*
X101734626Y-87983737D01*
X101718681Y-88012126D01*
X101693600Y-88029000D01*
X101656069Y-88035205D01*
X100754691Y-88035205D01*
X100717159Y-88029000D01*
X100692078Y-88012126D01*
X100676134Y-87983737D01*
X100670000Y-87938852D01*
X100670000Y-87878768D01*
X100806775Y-87878768D01*
X101603984Y-87878768D01*
X101603984Y-87667681D01*
X100806775Y-87667681D01*
X100806775Y-87878768D01*
X100670000Y-87878768D01*
X100670000Y-87605521D01*
X100676095Y-87561411D01*
X100691974Y-87533427D01*
X100717048Y-87516729D01*
X100754691Y-87510572D01*
X101656069Y-87510572D01*
X101693553Y-87516798D01*
G37*
G36*
X101009986Y-88476735D02*
G01*
X101009986Y-88150854D01*
X101154577Y-88150854D01*
X101154577Y-88476735D01*
X101009986Y-88476735D01*
G37*
G36*
X101600076Y-89058522D02*
G01*
X101600076Y-88882301D01*
X100670000Y-88882301D01*
X100670000Y-88723115D01*
X101600076Y-88723115D01*
X101600076Y-88546894D01*
X101740760Y-88546894D01*
X101740760Y-89058522D01*
X101600076Y-89058522D01*
G37*
G36*
X101315202Y-89137835D02*
G01*
X101340242Y-89153669D01*
X101355798Y-89179696D01*
X101361695Y-89220088D01*
X101361695Y-89500113D01*
X101355841Y-89539740D01*
X101340354Y-89565360D01*
X101315322Y-89581013D01*
X101277004Y-89586880D01*
X100754691Y-89586880D01*
X100716372Y-89581013D01*
X100691341Y-89565360D01*
X100675854Y-89539740D01*
X100670000Y-89500113D01*
X100670000Y-89433862D01*
X100798960Y-89433862D01*
X101232735Y-89433862D01*
X101232735Y-89285668D01*
X100798960Y-89285668D01*
X100798960Y-89433862D01*
X100670000Y-89433862D01*
X100670000Y-89220088D01*
X100675896Y-89179696D01*
X100691453Y-89153669D01*
X100716492Y-89137835D01*
X100754691Y-89131917D01*
X101277004Y-89131917D01*
X101315202Y-89137835D01*
G37*
G36*
X101009986Y-90021327D02*
G01*
X101009986Y-89695446D01*
X101154577Y-89695446D01*
X101154577Y-90021327D01*
X101009986Y-90021327D01*
G37*
G36*
X101600076Y-90575087D02*
G01*
X101600076Y-90298482D01*
X101283538Y-90298482D01*
X101283538Y-90534787D01*
X101146762Y-90534787D01*
X101146762Y-90298482D01*
X100670000Y-90298482D01*
X100670000Y-90138625D01*
X101740760Y-90138625D01*
X101740760Y-90575087D01*
X101600076Y-90575087D01*
G37*
G36*
X101740760Y-91084944D02*
G01*
X101734590Y-91130538D01*
X101718588Y-91159297D01*
X101693500Y-91176331D01*
X101656069Y-91182580D01*
X101141571Y-91182580D01*
X101104140Y-91176331D01*
X101079053Y-91159297D01*
X101063050Y-91130538D01*
X101056880Y-91084944D01*
X101056880Y-91021379D01*
X101193656Y-91021379D01*
X101603984Y-91021379D01*
X101603984Y-90826046D01*
X101193656Y-90826046D01*
X101193656Y-91021379D01*
X101056880Y-91021379D01*
X101056880Y-90826046D01*
X100670000Y-90826046D01*
X100670000Y-90666189D01*
X101740760Y-90666189D01*
X101740760Y-91084944D01*
G37*
G36*
X100754691Y-91822313D02*
G01*
X100717264Y-91816062D01*
X100692176Y-91799020D01*
X100676172Y-91770244D01*
X100670000Y-91724616D01*
X100670000Y-91391285D01*
X100676095Y-91347175D01*
X100691974Y-91319191D01*
X100717048Y-91302493D01*
X100754691Y-91296336D01*
X101656069Y-91296336D01*
X101693711Y-91302493D01*
X101718785Y-91319191D01*
X101734665Y-91347175D01*
X101740760Y-91391285D01*
X101740760Y-91724616D01*
X101734588Y-91770244D01*
X101718583Y-91799020D01*
X101693496Y-91816062D01*
X101656069Y-91822313D01*
X101389050Y-91822313D01*
X101389050Y-91663128D01*
X101603984Y-91663128D01*
X101603984Y-91456193D01*
X100806775Y-91456193D01*
X100806775Y-91663128D01*
X101029525Y-91663128D01*
X101029525Y-91822313D01*
X100754691Y-91822313D01*
G37*
G36*
X100873210Y-92492393D02*
G01*
X100873210Y-92411121D01*
X100670000Y-92411121D01*
X100670000Y-92258775D01*
X100873210Y-92258775D01*
X100873210Y-91907676D01*
X100968159Y-91907676D01*
X101740760Y-92173412D01*
X101740760Y-92335956D01*
X101734593Y-92335956D01*
X101009986Y-92086645D01*
X101009986Y-92258775D01*
X101330432Y-92258775D01*
X101330432Y-92411121D01*
X101009986Y-92411121D01*
X101009986Y-92492393D01*
X100873210Y-92492393D01*
G37*
G36*
X100754691Y-93095917D02*
G01*
X100717212Y-93089689D01*
X100692127Y-93072731D01*
X100676153Y-93044148D01*
X100670000Y-92998892D01*
X100670000Y-92678506D01*
X100676095Y-92634396D01*
X100691974Y-92606412D01*
X100717048Y-92589714D01*
X100754691Y-92583557D01*
X101017801Y-92583557D01*
X101017801Y-92740666D01*
X100806775Y-92740666D01*
X100806775Y-92938808D01*
X101221011Y-92938808D01*
X101221011Y-92583557D01*
X101740760Y-92600654D01*
X101740760Y-93088407D01*
X101600076Y-93088407D01*
X101600076Y-92748909D01*
X101357787Y-92738651D01*
X101357787Y-92998892D01*
X101351634Y-93044148D01*
X101335659Y-93072731D01*
X101310575Y-93089689D01*
X101273096Y-93095917D01*
X100754691Y-93095917D01*
G37*
D12*
X114516666Y-85054819D02*
X114516666Y-85769104D01*
X114516666Y-85769104D02*
X114469047Y-85911961D01*
X114469047Y-85911961D02*
X114373809Y-86007200D01*
X114373809Y-86007200D02*
X114230952Y-86054819D01*
X114230952Y-86054819D02*
X114135714Y-86054819D01*
X115516666Y-86054819D02*
X114945238Y-86054819D01*
X115230952Y-86054819D02*
X115230952Y-85054819D01*
X115230952Y-85054819D02*
X115135714Y-85197676D01*
X115135714Y-85197676D02*
X115040476Y-85292914D01*
X115040476Y-85292914D02*
X114945238Y-85340533D01*
%TO.C,J1*%
D13*
X103200000Y-77400000D02*
X103200000Y-79140000D01*
X103200000Y-83200000D02*
X103200000Y-81860000D01*
X104690000Y-83200000D02*
X103200000Y-83200000D01*
X125010000Y-83200000D02*
X125010000Y-84400000D01*
X125010000Y-83200000D02*
X126500000Y-83200000D01*
X126500000Y-77400000D02*
X103200000Y-77400000D01*
X126500000Y-79140000D02*
X126500000Y-77400000D01*
X126500000Y-83200000D02*
X126500000Y-81860000D01*
%TD*%
M02*
