%TF.GenerationSoftware,KiCad,Pcbnew,10.0.5*%
%TF.CreationDate,2026-09-12T22:34:43+08:00*%
%TF.ProjectId,RGB888-FPC40-to-FPC45,52474238-3838-42d4-9650-4334302d746f,rev?*%
%TF.SameCoordinates,Original*%
%TF.FileFunction,Copper,L2,Bot*%
%TF.FilePolarity,Positive*%
%FSLAX46Y46*%
G04 Gerber Fmt 4.6, Leading zero omitted, Abs format (unit mm)*
G04 Created by KiCad (PCBNEW 10.0.5) date 2026-09-12 22:34:43*
%MOMM*%
%LPD*%
G01*
G04 APERTURE LIST*
%TA.AperFunction,SMDPad,CuDef*%
%ADD10R,0.300000X1.300000*%
%TD*%
%TA.AperFunction,SMDPad,CuDef*%
%ADD11R,1.800000X2.200000*%
%TD*%
%TA.AperFunction,ViaPad*%
%ADD12C,0.600000*%
%TD*%
%TA.AperFunction,Conductor*%
%ADD13C,0.200000*%
%TD*%
G04 APERTURE END LIST*
D10*
%TO.P,J2,1,Pin_1_1*%
%TO.N,+5V*%
X125500000Y-92500000D03*
%TO.P,J2,2,Pin_2_2*%
X125000000Y-92500000D03*
%TO.P,J2,3,Pin_3_3*%
%TO.N,/LCD_B0*%
X124500000Y-92500000D03*
%TO.P,J2,4,Pin_4_4*%
%TO.N,/LCD_B1*%
X124000000Y-92500000D03*
%TO.P,J2,5,Pin_5_5*%
%TO.N,/LCD_B2*%
X123500000Y-92500000D03*
%TO.P,J2,6,Pin_6_6*%
%TO.N,/LCD_B3*%
X123000000Y-92500000D03*
%TO.P,J2,7,Pin_7_7*%
%TO.N,/LCD_B4*%
X122500000Y-92500000D03*
%TO.P,J2,8,Pin_8_8*%
%TO.N,/LCD_B5*%
X122000000Y-92500000D03*
%TO.P,J2,9,Pin_9_9*%
%TO.N,/LCD_B6*%
X121500000Y-92500000D03*
%TO.P,J2,10,Pin_10_10*%
%TO.N,/LCD_B7*%
X121000000Y-92500000D03*
%TO.P,J2,11,Pin_11_11*%
%TO.N,GND*%
X120500000Y-92500000D03*
%TO.P,J2,12,Pin_12_12*%
%TO.N,/LCD_G0*%
X120000000Y-92500000D03*
%TO.P,J2,13,Pin_13_13*%
%TO.N,/LCD_G1*%
X119500000Y-92500000D03*
%TO.P,J2,14,Pin_14_14*%
%TO.N,/LCD_G2*%
X119000000Y-92500000D03*
%TO.P,J2,15,Pin_15_15*%
%TO.N,/LCD_G3*%
X118500000Y-92500000D03*
%TO.P,J2,16,Pin_16_16*%
%TO.N,/LCD_G4*%
X118000000Y-92500000D03*
%TO.P,J2,17,Pin_17_17*%
%TO.N,/LCD_G5*%
X117500000Y-92500000D03*
%TO.P,J2,18,Pin_18_18*%
%TO.N,/LCD_G6*%
X117000000Y-92500000D03*
%TO.P,J2,19,Pin_19_19*%
%TO.N,/LCD_G7*%
X116500000Y-92500000D03*
%TO.P,J2,20,Pin_20_20*%
%TO.N,GND*%
X116000000Y-92500000D03*
%TO.P,J2,21,Pin_21_21*%
%TO.N,/LCD_R0*%
X115500000Y-92500000D03*
%TO.P,J2,22,Pin_22_22*%
%TO.N,/LCD_R1*%
X115000000Y-92500000D03*
%TO.P,J2,23,Pin_23_23*%
%TO.N,/LCD_R2*%
X114500000Y-92500000D03*
%TO.P,J2,24,Pin_24_24*%
%TO.N,/LCD_R3*%
X114000000Y-92500000D03*
%TO.P,J2,25,Pin_25_25*%
%TO.N,/LCD_R4*%
X113500000Y-92500000D03*
%TO.P,J2,26,Pin_26_26*%
%TO.N,/LCD_R5*%
X113000000Y-92500000D03*
%TO.P,J2,27,Pin_27_27*%
%TO.N,/LCD_R6*%
X112500000Y-92500000D03*
%TO.P,J2,28,Pin_28_28*%
%TO.N,/LCD_R7*%
X112000000Y-92500000D03*
%TO.P,J2,29,Pin_29_29*%
%TO.N,GND*%
X111500000Y-92500000D03*
%TO.P,J2,30,Pin_30_30*%
%TO.N,unconnected-(J2-Pin_30-Pad30)*%
X111000000Y-92500000D03*
%TO.P,J2,31,Pin_31_31*%
%TO.N,/LCD_BL*%
X110500000Y-92500000D03*
%TO.P,J2,32,Pin_32_32*%
%TO.N,/TS_RST*%
X110000000Y-92500000D03*
%TO.P,J2,33,Pin_33_33*%
%TO.N,/LCD_DE*%
X109500000Y-92500000D03*
%TO.P,J2,34,Pin_34_34*%
%TO.N,/LCD_VSYNC*%
X109000000Y-92500000D03*
%TO.P,J2,35,Pin_35_35*%
%TO.N,/LCD_HSYNC*%
X108500000Y-92500000D03*
%TO.P,J2,36,Pin_36_36*%
%TO.N,/LCD_CLK*%
X108000000Y-92500000D03*
%TO.P,J2,37,Pin_37_37*%
%TO.N,GND*%
X107500000Y-92500000D03*
%TO.P,J2,38,Pin_38_38*%
X107000000Y-92500000D03*
%TO.P,J2,39,Pin_39_39*%
X106500000Y-92500000D03*
%TO.P,J2,40,Pin_40_40*%
X106000000Y-92500000D03*
%TO.P,J2,41,Pin_41_41*%
%TO.N,/TS_SCL*%
X105500000Y-92500000D03*
%TO.P,J2,42,Pin_42_42*%
%TO.N,/TS_SDA*%
X105000000Y-92500000D03*
%TO.P,J2,43,Pin_43_43*%
%TO.N,/TS_INT*%
X104500000Y-92500000D03*
%TO.P,J2,44,Pin_44_44*%
%TO.N,unconnected-(J2-Pin_44-Pad44)*%
X104000000Y-92500000D03*
%TO.P,J2,45,Pin_45_45*%
%TO.N,GND*%
X103500000Y-92500000D03*
D11*
%TO.P,J2,MP,MountPin_MP*%
X127400000Y-95750000D03*
X101600000Y-95750000D03*
%TD*%
D12*
%TO.N,+5V*%
X127750000Y-86000000D03*
X127000000Y-87000000D03*
%TO.N,/LCD_R0*%
X122500000Y-87500000D03*
%TO.N,/LCD_R1*%
X123400000Y-85324495D03*
%TO.N,/LCD_R2*%
X122335168Y-86159817D03*
%TO.N,/LCD_R3*%
X122200000Y-85371316D03*
%TO.N,/LCD_R4*%
X120469961Y-86700000D03*
%TO.N,/LCD_R5*%
X121099418Y-86029814D03*
%TO.N,/LCD_R6*%
X120500000Y-85500000D03*
%TO.N,/LCD_R7*%
X119700000Y-85050000D03*
%TO.N,GND*%
X106500000Y-89500000D03*
X103000000Y-90500000D03*
X110500000Y-81500000D03*
X119500000Y-81500000D03*
X127500000Y-83000000D03*
X106500000Y-91000000D03*
X106500000Y-88000000D03*
X111500000Y-95000000D03*
X124000000Y-95000000D03*
X107500000Y-95000000D03*
X120500000Y-95000000D03*
X116000000Y-95000000D03*
X106000000Y-95000000D03*
X128000000Y-92000000D03*
X111000000Y-88500000D03*
X111000000Y-90500000D03*
X115000000Y-81500000D03*
X107000000Y-81500000D03*
%TO.N,/LCD_G0*%
X120400000Y-90745588D03*
%TO.N,/LCD_G1*%
X119873645Y-89932129D03*
%TO.N,/LCD_G2*%
X119026554Y-89473446D03*
%TO.N,/LCD_G3*%
X118765687Y-90500000D03*
%TO.N,/LCD_G4*%
X117970081Y-90416243D03*
%TO.N,/LCD_G5*%
X117000000Y-90000000D03*
%TO.N,/LCD_G6*%
X116199997Y-90000000D03*
%TO.N,/LCD_G7*%
X116000000Y-91000000D03*
%TO.N,/LCD_B0*%
X124618466Y-90730064D03*
%TO.N,/LCD_B1*%
X125038479Y-89638479D03*
%TO.N,/LCD_B2*%
X125555636Y-88555636D03*
%TO.N,/LCD_B3*%
X126022793Y-87522793D03*
%TO.N,/LCD_B4*%
X113000582Y-87000000D03*
%TO.N,/LCD_B5*%
X112222782Y-86626539D03*
%TO.N,/LCD_B6*%
X111599758Y-86124697D03*
%TO.N,/LCD_B7*%
X111100000Y-85500000D03*
%TO.N,/LCD_CLK*%
X107924841Y-90977673D03*
%TO.N,/LCD_HSYNC*%
X108000000Y-90000000D03*
%TO.N,/LCD_VSYNC*%
X108000000Y-89000000D03*
%TO.N,/LCD_DE*%
X108042892Y-88000000D03*
%TO.N,/LCD_BL*%
X108000000Y-86000000D03*
%TO.N,/TS_RST*%
X107385421Y-86512149D03*
%TO.N,/TS_SDA*%
X106892042Y-85432129D03*
%TO.N,/TS_SCL*%
X106500000Y-86500000D03*
%TO.N,/TS_INT*%
X104500000Y-90000000D03*
%TD*%
%TO.N,+5V*%
D13*
X125000000Y-92000000D02*
X125000000Y-92500000D01*
X127000000Y-87000000D02*
X127000000Y-89500000D01*
X127500000Y-88000000D02*
X127500000Y-90000000D01*
X125000000Y-92500000D02*
X125500000Y-92500000D01*
X127000000Y-89500000D02*
X126000000Y-90500000D01*
X126000000Y-90500000D02*
X126000000Y-91000000D01*
X127750000Y-86000000D02*
X127750000Y-87750000D01*
X127750000Y-87750000D02*
X127500000Y-88000000D01*
X126000000Y-91000000D02*
X125000000Y-92000000D01*
X125500000Y-92000000D02*
X125500000Y-92500000D01*
X127500000Y-90000000D02*
X125500000Y-92000000D01*
%TO.N,/LCD_R0*%
X115286196Y-91220510D02*
X115286196Y-89779490D01*
X115286196Y-89779490D02*
X116965686Y-88100000D01*
X115286196Y-91220510D02*
X115500000Y-91434314D01*
X119100000Y-88100000D02*
X119500000Y-88500000D01*
X122215546Y-87500000D02*
X122500000Y-87500000D01*
X115500000Y-91434314D02*
X115500000Y-92500000D01*
X119500000Y-88500000D02*
X121215545Y-88500000D01*
X121215545Y-88500000D02*
X122215546Y-87500000D01*
X116965686Y-88100000D02*
X119100000Y-88100000D01*
%TO.N,/LCD_R1*%
X116831372Y-87400000D02*
X116032843Y-88198529D01*
X121049860Y-88100000D02*
X119890060Y-88100000D01*
X116032843Y-88467157D02*
X114500000Y-90000000D01*
X115000000Y-91500000D02*
X115000000Y-92500000D01*
X122600000Y-86900000D02*
X122249861Y-86900000D01*
X116032843Y-88198529D02*
X116032843Y-88467157D01*
X114500000Y-90502943D02*
X114800000Y-90802944D01*
X119490060Y-87700000D02*
X118134314Y-87700000D01*
X114800000Y-90802944D02*
X114800000Y-91300000D01*
X117834315Y-87400000D02*
X116831372Y-87400000D01*
X122249861Y-86900000D02*
X121049860Y-88100000D01*
X123400000Y-86100000D02*
X122600000Y-86900000D01*
X119890060Y-88100000D02*
X119490060Y-87700000D01*
X123400000Y-85324495D02*
X123400000Y-86100000D01*
X114950000Y-92450000D02*
X115000000Y-92500000D01*
X114500000Y-90000000D02*
X114500000Y-90502943D01*
X114800000Y-91300000D02*
X115000000Y-91500000D01*
X118134314Y-87700000D02*
X117834315Y-87400000D01*
%TO.N,/LCD_R2*%
X118000000Y-87000000D02*
X116065686Y-87000000D01*
X118300000Y-87300000D02*
X118000000Y-87000000D01*
X115632843Y-88132843D02*
X114100000Y-89665686D01*
X116065686Y-87000000D02*
X115632843Y-87432843D01*
X114400000Y-91465685D02*
X114400000Y-90968629D01*
X114450000Y-92450000D02*
X114500000Y-92500000D01*
X114100000Y-89665686D02*
X114100000Y-90668628D01*
X120884175Y-87700000D02*
X120055746Y-87700000D01*
X122335168Y-86249007D02*
X120884175Y-87700000D01*
X120055746Y-87700000D02*
X119655746Y-87300000D01*
X114500000Y-92500000D02*
X114500000Y-91565686D01*
X115632843Y-87432843D02*
X115632843Y-88132843D01*
X122335168Y-86159817D02*
X122335168Y-86249007D01*
X114500000Y-91565686D02*
X114400000Y-91465685D01*
X119655746Y-87300000D02*
X118300000Y-87300000D01*
X114100000Y-90668628D02*
X114400000Y-90968629D01*
%TO.N,/LCD_R3*%
X114000000Y-91134314D02*
X113700000Y-90834314D01*
X118154414Y-86500000D02*
X118554414Y-86900000D01*
X116000000Y-86500000D02*
X118154414Y-86500000D01*
X120718490Y-87300000D02*
X121699418Y-86319072D01*
X114000000Y-92500000D02*
X114000000Y-91134314D01*
X115232843Y-87267157D02*
X116000000Y-86500000D01*
X119821432Y-86900000D02*
X120221432Y-87300000D01*
X113700000Y-90834314D02*
X113700000Y-89500000D01*
X120221432Y-87300000D02*
X120718490Y-87300000D01*
X121699418Y-85871898D02*
X122200000Y-85371316D01*
X115232843Y-87967157D02*
X115232843Y-87267157D01*
X121699418Y-86319072D02*
X121699418Y-85871898D01*
X113700000Y-89500000D02*
X115232843Y-87967157D01*
X118554414Y-86900000D02*
X119821432Y-86900000D01*
%TO.N,/LCD_R4*%
X118220100Y-86000000D02*
X115697058Y-86000000D01*
X114832843Y-86864215D02*
X114832843Y-87801471D01*
X118720100Y-86500000D02*
X120269961Y-86500000D01*
X114832843Y-87801471D02*
X113300000Y-89334314D01*
X118720100Y-86500000D02*
X118220100Y-86000000D01*
X113300000Y-89334314D02*
X113300000Y-91000000D01*
X113450000Y-92450000D02*
X113500000Y-92500000D01*
X113500000Y-91200000D02*
X113500000Y-92500000D01*
X120269961Y-86500000D02*
X120469961Y-86700000D01*
X113300000Y-91000000D02*
X113500000Y-91200000D01*
X115697058Y-86000000D02*
X114832843Y-86864215D01*
%TO.N,/LCD_R5*%
X115631372Y-85500000D02*
X114432843Y-86698529D01*
X112900000Y-89080483D02*
X112900000Y-91550000D01*
X121099418Y-86029814D02*
X121029232Y-86100000D01*
X121029232Y-86100000D02*
X119100000Y-86100000D01*
X114432843Y-86698529D02*
X114432843Y-87547640D01*
X114432843Y-87547640D02*
X112900000Y-89080483D01*
X118500000Y-85500000D02*
X115631372Y-85500000D01*
X113000000Y-91650000D02*
X113000000Y-92500000D01*
X112900000Y-91550000D02*
X113000000Y-91650000D01*
X119100000Y-86100000D02*
X118500000Y-85500000D01*
X112950000Y-92450000D02*
X113000000Y-92500000D01*
%TO.N,/LCD_R6*%
X114032843Y-86532843D02*
X114032843Y-87381954D01*
X119251471Y-85450000D02*
X119084314Y-85450000D01*
X115565686Y-85000000D02*
X114032843Y-86532843D01*
X112500000Y-88914797D02*
X112500000Y-92500000D01*
X120500000Y-85500000D02*
X120098529Y-85500000D01*
X119084314Y-85450000D02*
X118634314Y-85000000D01*
X118634314Y-85000000D02*
X115565686Y-85000000D01*
X120098529Y-85500000D02*
X119948529Y-85650000D01*
X119451471Y-85650000D02*
X119251471Y-85450000D01*
X114032843Y-87381954D02*
X112500000Y-88914797D01*
X119948529Y-85650000D02*
X119451471Y-85650000D01*
%TO.N,/LCD_R7*%
X119700000Y-85050000D02*
X119250000Y-85050000D01*
X118700000Y-84500000D02*
X115500000Y-84500000D01*
X119250000Y-85050000D02*
X118700000Y-84500000D01*
X112000000Y-88849111D02*
X112000000Y-92500000D01*
X113600582Y-86399418D02*
X113600582Y-87248529D01*
X115500000Y-84500000D02*
X113600582Y-86399418D01*
X113600582Y-87248529D02*
X112000000Y-88849111D01*
%TO.N,GND*%
X107500000Y-92500000D02*
X107500000Y-95000000D01*
X103500000Y-92500000D02*
X103500000Y-91000000D01*
X107000000Y-94500000D02*
X107500000Y-95000000D01*
X103500000Y-92500000D02*
X103000000Y-92500000D01*
X111450000Y-90950000D02*
X111000000Y-90500000D01*
X106000000Y-92500000D02*
X106000000Y-95000000D01*
X107500000Y-92500000D02*
X107500000Y-92000000D01*
X107000000Y-92500000D02*
X107000000Y-94500000D01*
X106500000Y-92500000D02*
X106500000Y-94000000D01*
X120500000Y-92500000D02*
X120500000Y-95000000D01*
X106000000Y-92500000D02*
X107500000Y-92500000D01*
X111450000Y-91950000D02*
X111450000Y-90950000D01*
X111500000Y-92500000D02*
X111500000Y-95000000D01*
X103500000Y-91000000D02*
X103000000Y-90500000D01*
X111500000Y-92000000D02*
X111450000Y-91950000D01*
X116000000Y-92500000D02*
X116000000Y-95000000D01*
X111500000Y-92500000D02*
X111500000Y-92000000D01*
X106500000Y-94000000D02*
X107500000Y-95000000D01*
%TO.N,/LCD_G0*%
X120000000Y-91245588D02*
X120000000Y-92500000D01*
X120400000Y-90745588D02*
X120400000Y-90845588D01*
X120400000Y-90845588D02*
X120000000Y-91245588D01*
%TO.N,/LCD_G1*%
X119765687Y-90914215D02*
X119500000Y-91179902D01*
X119765687Y-90040087D02*
X119765687Y-90914215D01*
X119873645Y-89932129D02*
X119765687Y-90040087D01*
X119500000Y-91179902D02*
X119500000Y-92500000D01*
%TO.N,/LCD_G2*%
X119000000Y-89446892D02*
X119000000Y-89900000D01*
X119365687Y-90251471D02*
X119365687Y-90748529D01*
X119026554Y-89473446D02*
X119000000Y-89446892D01*
X119365687Y-90748529D02*
X119014216Y-91100000D01*
X119000000Y-89900000D02*
X119014216Y-89900000D01*
X119014216Y-89900000D02*
X119365687Y-90251471D01*
X119000000Y-91100000D02*
X119000000Y-92500000D01*
X119014216Y-91100000D02*
X119000000Y-91100000D01*
%TO.N,/LCD_G3*%
X118765687Y-90500000D02*
X118500000Y-90765687D01*
X118500000Y-90765687D02*
X118500000Y-92500000D01*
%TO.N,/LCD_G4*%
X118000000Y-90419393D02*
X118000000Y-92500000D01*
X117996850Y-90416243D02*
X118000000Y-90419393D01*
X117970081Y-90416243D02*
X117996850Y-90416243D01*
%TO.N,/LCD_G5*%
X117000000Y-90500000D02*
X117500000Y-91000000D01*
X117450000Y-92450000D02*
X117500000Y-92500000D01*
X117000000Y-90000000D02*
X117000000Y-90500000D01*
X117500000Y-91000000D02*
X117500000Y-92500000D01*
%TO.N,/LCD_G6*%
X116950000Y-92450000D02*
X117000000Y-92500000D01*
X117000000Y-91065686D02*
X117000000Y-92500000D01*
X116199997Y-90000000D02*
X116239690Y-90039693D01*
X116199997Y-90265683D02*
X116199997Y-90000000D01*
X117000000Y-91065686D02*
X116199997Y-90265683D01*
%TO.N,/LCD_G7*%
X116000000Y-91000000D02*
X116500000Y-91500000D01*
X116500000Y-91500000D02*
X116500000Y-92500000D01*
%TO.N,/LCD_B0*%
X124500000Y-90848530D02*
X124618466Y-90730064D01*
X124500000Y-92500000D02*
X124500000Y-90848530D01*
%TO.N,/LCD_B1*%
X124000000Y-90500000D02*
X124000000Y-92500000D01*
X124861521Y-89638479D02*
X124000000Y-90500000D01*
X125038479Y-89638479D02*
X124861521Y-89638479D01*
%TO.N,/LCD_B2*%
X125111272Y-89000000D02*
X124828430Y-89000000D01*
X124828430Y-89000000D02*
X123500000Y-90328429D01*
X125555636Y-88555636D02*
X125111272Y-89000000D01*
X123500000Y-90328429D02*
X123500000Y-92500000D01*
%TO.N,/LCD_B3*%
X125739951Y-87522793D02*
X126022793Y-87522793D01*
X123000000Y-92500000D02*
X123000000Y-90262743D01*
X123000000Y-90262743D02*
X125739951Y-87522793D01*
%TO.N,/LCD_B4*%
X111620099Y-83000000D02*
X113802944Y-83000000D01*
X109600000Y-85020099D02*
X111620099Y-83000000D01*
X126000000Y-86697057D02*
X126000000Y-84300001D01*
X112774043Y-87226539D02*
X110846640Y-87226539D01*
X113802944Y-83000000D02*
X114002944Y-82800000D01*
X113000582Y-87000000D02*
X112774043Y-87226539D01*
X109600000Y-85979899D02*
X109600000Y-85020099D01*
X110846640Y-87226539D02*
X109600000Y-85979899D01*
X122450000Y-90247057D02*
X122450000Y-92000000D01*
X126000000Y-84300001D02*
X124500000Y-82800001D01*
X114002944Y-82800000D02*
X124500000Y-82800001D01*
X126000000Y-86697057D02*
X122450000Y-90247057D01*
%TO.N,/LCD_B5*%
X114168630Y-83200000D02*
X124331372Y-83200000D01*
X110000000Y-85814214D02*
X110000000Y-85185785D01*
X112222782Y-86626539D02*
X112124624Y-86724697D01*
X125500000Y-84368628D02*
X125500000Y-86631372D01*
X122000000Y-90131372D02*
X122000000Y-92500000D01*
X112124624Y-86724697D02*
X110910483Y-86724697D01*
X125500000Y-86631372D02*
X122000000Y-90131372D01*
X124331372Y-83200000D02*
X125500000Y-84368628D01*
X110910483Y-86724697D02*
X110000000Y-85814214D01*
X111685785Y-83500000D02*
X113868628Y-83500000D01*
X110000000Y-85185785D02*
X111685785Y-83500000D01*
X113868628Y-83500000D02*
X114168630Y-83200000D01*
%TO.N,/LCD_B6*%
X113934314Y-84000000D02*
X111751471Y-84000000D01*
X121500000Y-92500000D02*
X121500000Y-90065686D01*
X111751471Y-84000000D02*
X110500000Y-85251471D01*
X110500000Y-85251471D02*
X110500000Y-85748529D01*
X110500000Y-85748529D02*
X110876168Y-86124697D01*
X125000000Y-86565686D02*
X125000000Y-84434314D01*
X125000000Y-84434314D02*
X124165686Y-83600000D01*
X110876168Y-86124697D02*
X111599758Y-86124697D01*
X124165686Y-83600000D02*
X114334315Y-83600000D01*
X114334315Y-83600000D02*
X113934314Y-84000000D01*
X121500000Y-90065686D02*
X125000000Y-86565686D01*
%TO.N,/LCD_B7*%
X114500000Y-84000000D02*
X124000000Y-84000000D01*
X111100000Y-85400000D02*
X112000000Y-84500000D01*
X111100000Y-85500000D02*
X111100000Y-85400000D01*
X112000000Y-84500000D02*
X114000000Y-84500000D01*
X121000000Y-90000000D02*
X121000000Y-92500000D01*
X124000000Y-84000000D02*
X124500000Y-84500000D01*
X124500000Y-86500000D02*
X121000000Y-90000000D01*
X124500000Y-84500000D02*
X124500000Y-86500000D01*
X114000000Y-84500000D02*
X114500000Y-84000000D01*
%TO.N,/LCD_CLK*%
X108000000Y-91052832D02*
X107924841Y-90977673D01*
X108000000Y-92500000D02*
X108000000Y-91052832D01*
%TO.N,/LCD_HSYNC*%
X108000000Y-90000000D02*
X108048526Y-90000000D01*
X108500000Y-91148532D02*
X108500000Y-92500000D01*
X108600000Y-91048532D02*
X108500000Y-91148532D01*
X108048526Y-90000000D02*
X108600000Y-90551474D01*
X108600000Y-90551474D02*
X108600000Y-91048532D01*
%TO.N,/LCD_VSYNC*%
X109000000Y-92500000D02*
X109000000Y-90000000D01*
X109000000Y-90000000D02*
X108000000Y-89000000D01*
%TO.N,/LCD_DE*%
X108042892Y-88108578D02*
X109500000Y-89565686D01*
X108042892Y-88000000D02*
X108042892Y-88108578D01*
X109500000Y-89565686D02*
X109500000Y-92500000D01*
%TO.N,/LCD_BL*%
X108065686Y-86000000D02*
X110400000Y-88334315D01*
X110400000Y-90748529D02*
X110500000Y-90848529D01*
X110500000Y-90848529D02*
X110500000Y-92500000D01*
X108000000Y-86000000D02*
X108065686Y-86000000D01*
X110400000Y-88334315D02*
X110400000Y-90748529D01*
%TO.N,/TS_RST*%
X107751471Y-86600000D02*
X108100000Y-86600000D01*
X107663620Y-86512149D02*
X107751471Y-86600000D01*
X107385421Y-86512149D02*
X107663620Y-86512149D01*
X110000000Y-88500000D02*
X110000000Y-92500000D01*
X108100000Y-86600000D02*
X110000000Y-88500000D01*
%TO.N,/TS_SDA*%
X105000000Y-92500000D02*
X105000000Y-91500000D01*
X105100000Y-86900000D02*
X106567871Y-85432129D01*
X105100000Y-91400000D02*
X105100000Y-86900000D01*
X106567871Y-85432129D02*
X106892042Y-85432129D01*
X105000000Y-91500000D02*
X105100000Y-91400000D01*
%TO.N,/TS_SCL*%
X105500000Y-87500000D02*
X105500000Y-92500000D01*
X106500000Y-86500000D02*
X105500000Y-87500000D01*
%TO.N,/TS_INT*%
X104500000Y-90000000D02*
X104500000Y-92500000D01*
%TD*%
%TA.AperFunction,Conductor*%
%TO.N,GND*%
G36*
X111940514Y-87846724D02*
G01*
X111986269Y-87899528D01*
X111996213Y-87968686D01*
X111967188Y-88032242D01*
X111961161Y-88038714D01*
X111787458Y-88212417D01*
X111631286Y-88368589D01*
X111519481Y-88480393D01*
X111519479Y-88480396D01*
X111481558Y-88546079D01*
X111481557Y-88546081D01*
X111440423Y-88617325D01*
X111439485Y-88620827D01*
X111399499Y-88770054D01*
X111399499Y-88770056D01*
X111399499Y-88938157D01*
X111399500Y-88938170D01*
X111399500Y-91228152D01*
X111379815Y-91295191D01*
X111327011Y-91340946D01*
X111288753Y-91351442D01*
X111265599Y-91353931D01*
X111239090Y-91353930D01*
X111211244Y-91350936D01*
X111146693Y-91324198D01*
X111106845Y-91266805D01*
X111100500Y-91227647D01*
X111100500Y-90769474D01*
X111100500Y-90769472D01*
X111100163Y-90768216D01*
X111079137Y-90689744D01*
X111059577Y-90616745D01*
X111017112Y-90543192D01*
X111000500Y-90481193D01*
X111000500Y-88255257D01*
X110994210Y-88231785D01*
X110994209Y-88231782D01*
X110963914Y-88118717D01*
X110959577Y-88102530D01*
X110916639Y-88028160D01*
X110916639Y-88028159D01*
X110907909Y-88013038D01*
X110891436Y-87945138D01*
X110914289Y-87879111D01*
X110969211Y-87835921D01*
X111015296Y-87827039D01*
X111873475Y-87827039D01*
X111940514Y-87846724D01*
G37*
%TD.AperFunction*%
%TA.AperFunction,Conductor*%
G36*
X128942539Y-76520185D02*
G01*
X128988294Y-76572989D01*
X128999500Y-76624500D01*
X128999500Y-94407381D01*
X128979815Y-94474420D01*
X128927011Y-94520175D01*
X128857853Y-94530119D01*
X128794297Y-94501094D01*
X128759318Y-94450714D01*
X128743354Y-94407913D01*
X128743350Y-94407906D01*
X128657190Y-94292812D01*
X128657187Y-94292809D01*
X128542093Y-94206649D01*
X128542086Y-94206645D01*
X128407379Y-94156403D01*
X128407372Y-94156401D01*
X128347844Y-94150000D01*
X127650000Y-94150000D01*
X127650000Y-97350000D01*
X128347828Y-97350000D01*
X128347844Y-97349999D01*
X128407372Y-97343598D01*
X128407379Y-97343596D01*
X128542086Y-97293354D01*
X128542093Y-97293350D01*
X128657187Y-97207190D01*
X128657190Y-97207187D01*
X128743350Y-97092093D01*
X128743355Y-97092084D01*
X128759318Y-97049286D01*
X128801189Y-96993352D01*
X128866653Y-96968934D01*
X128934926Y-96983785D01*
X128984332Y-97033190D01*
X128999500Y-97092618D01*
X128999500Y-99875500D01*
X128979815Y-99942539D01*
X128927011Y-99988294D01*
X128875500Y-99999500D01*
X100124500Y-99999500D01*
X100057461Y-99979815D01*
X100011706Y-99927011D01*
X100000500Y-99875500D01*
X100000500Y-97092618D01*
X100020185Y-97025579D01*
X100072989Y-96979824D01*
X100142147Y-96969880D01*
X100205703Y-96998905D01*
X100240682Y-97049286D01*
X100256644Y-97092084D01*
X100256649Y-97092093D01*
X100342809Y-97207187D01*
X100342812Y-97207190D01*
X100457906Y-97293350D01*
X100457913Y-97293354D01*
X100592620Y-97343596D01*
X100592627Y-97343598D01*
X100652155Y-97349999D01*
X100652172Y-97350000D01*
X101350000Y-97350000D01*
X101850000Y-97350000D01*
X102547828Y-97350000D01*
X102547844Y-97349999D01*
X102607372Y-97343598D01*
X102607379Y-97343596D01*
X102742086Y-97293354D01*
X102742093Y-97293350D01*
X102857187Y-97207190D01*
X102857190Y-97207187D01*
X102943350Y-97092093D01*
X102943354Y-97092086D01*
X102993596Y-96957379D01*
X102993598Y-96957372D01*
X102999999Y-96897844D01*
X126000000Y-96897844D01*
X126006401Y-96957372D01*
X126006403Y-96957379D01*
X126056645Y-97092086D01*
X126056649Y-97092093D01*
X126142809Y-97207187D01*
X126142812Y-97207190D01*
X126257906Y-97293350D01*
X126257913Y-97293354D01*
X126392620Y-97343596D01*
X126392627Y-97343598D01*
X126452155Y-97349999D01*
X126452172Y-97350000D01*
X127150000Y-97350000D01*
X127150000Y-96000000D01*
X126000000Y-96000000D01*
X126000000Y-96897844D01*
X102999999Y-96897844D01*
X103000000Y-96897827D01*
X103000000Y-96000000D01*
X101850000Y-96000000D01*
X101850000Y-97350000D01*
X101350000Y-97350000D01*
X101350000Y-95500000D01*
X101850000Y-95500000D01*
X103000000Y-95500000D01*
X103000000Y-94602172D01*
X102999999Y-94602155D01*
X126000000Y-94602155D01*
X126000000Y-95500000D01*
X127150000Y-95500000D01*
X127150000Y-94150000D01*
X126452155Y-94150000D01*
X126392627Y-94156401D01*
X126392620Y-94156403D01*
X126257913Y-94206645D01*
X126257906Y-94206649D01*
X126142812Y-94292809D01*
X126142809Y-94292812D01*
X126056649Y-94407906D01*
X126056645Y-94407913D01*
X126006403Y-94542620D01*
X126006401Y-94542627D01*
X126000000Y-94602155D01*
X102999999Y-94602155D01*
X102993598Y-94542627D01*
X102993596Y-94542620D01*
X102943354Y-94407913D01*
X102943350Y-94407906D01*
X102857190Y-94292812D01*
X102857187Y-94292809D01*
X102742093Y-94206649D01*
X102742086Y-94206645D01*
X102607379Y-94156403D01*
X102607372Y-94156401D01*
X102547844Y-94150000D01*
X101850000Y-94150000D01*
X101850000Y-95500000D01*
X101350000Y-95500000D01*
X101350000Y-94150000D01*
X100652155Y-94150000D01*
X100592627Y-94156401D01*
X100592620Y-94156403D01*
X100457913Y-94206645D01*
X100457906Y-94206649D01*
X100342812Y-94292809D01*
X100342809Y-94292812D01*
X100256649Y-94407906D01*
X100256645Y-94407913D01*
X100240682Y-94450714D01*
X100198811Y-94506648D01*
X100133346Y-94531065D01*
X100065073Y-94516213D01*
X100015668Y-94466808D01*
X100000500Y-94407381D01*
X100000500Y-91802155D01*
X102850000Y-91802155D01*
X102850000Y-92350000D01*
X103225500Y-92350000D01*
X103292539Y-92369685D01*
X103338294Y-92422489D01*
X103349500Y-92473998D01*
X103349501Y-92525998D01*
X103329818Y-92593037D01*
X103277015Y-92638793D01*
X103225501Y-92650000D01*
X102850000Y-92650000D01*
X102850000Y-93197844D01*
X102856401Y-93257372D01*
X102856403Y-93257379D01*
X102906645Y-93392086D01*
X102906649Y-93392093D01*
X102992809Y-93507187D01*
X102992812Y-93507190D01*
X103107906Y-93593350D01*
X103107913Y-93593354D01*
X103242620Y-93643596D01*
X103242627Y-93643598D01*
X103302155Y-93649999D01*
X103302172Y-93650000D01*
X103350000Y-93650000D01*
X103350000Y-93648627D01*
X103369685Y-93581588D01*
X103422489Y-93535833D01*
X103491647Y-93525889D01*
X103548309Y-93549359D01*
X103607669Y-93593796D01*
X103742517Y-93644091D01*
X103802127Y-93650500D01*
X104197872Y-93650499D01*
X104197873Y-93650498D01*
X104197885Y-93650498D01*
X104236744Y-93646320D01*
X104263252Y-93646320D01*
X104302127Y-93650500D01*
X104697872Y-93650499D01*
X104697873Y-93650498D01*
X104697885Y-93650498D01*
X104736744Y-93646320D01*
X104763252Y-93646320D01*
X104802127Y-93650500D01*
X105197872Y-93650499D01*
X105197873Y-93650498D01*
X105197885Y-93650498D01*
X105236744Y-93646320D01*
X105263252Y-93646320D01*
X105302127Y-93650500D01*
X105697872Y-93650499D01*
X105757483Y-93644091D01*
X105892331Y-93593796D01*
X105951690Y-93549359D01*
X106017154Y-93524943D01*
X106085426Y-93539795D01*
X106134832Y-93589200D01*
X106150000Y-93648627D01*
X106150000Y-93650000D01*
X106197821Y-93650000D01*
X106197831Y-93649999D01*
X106236742Y-93645815D01*
X106263258Y-93645815D01*
X106302168Y-93649999D01*
X106302179Y-93650000D01*
X106350000Y-93650000D01*
X106650000Y-93650000D01*
X106697821Y-93650000D01*
X106697831Y-93649999D01*
X106736742Y-93645815D01*
X106763258Y-93645815D01*
X106802168Y-93649999D01*
X106802179Y-93650000D01*
X106850000Y-93650000D01*
X106850000Y-92650000D01*
X106650000Y-92650000D01*
X106650000Y-93650000D01*
X106350000Y-93650000D01*
X106350000Y-92650000D01*
X106274500Y-92650000D01*
X106207461Y-92630315D01*
X106161706Y-92577511D01*
X106150500Y-92526002D01*
X106150499Y-92474002D01*
X106170182Y-92406963D01*
X106222985Y-92361207D01*
X106274499Y-92350000D01*
X106350000Y-92350000D01*
X106650000Y-92350000D01*
X106850000Y-92350000D01*
X106850000Y-91350000D01*
X106802164Y-91350000D01*
X106763252Y-91354183D01*
X106736748Y-91354183D01*
X106697835Y-91350000D01*
X106650000Y-91350000D01*
X106650000Y-92350000D01*
X106350000Y-92350000D01*
X106350000Y-91350000D01*
X106302164Y-91350000D01*
X106263252Y-91354183D01*
X106236748Y-91354183D01*
X106211248Y-91351442D01*
X106146696Y-91324705D01*
X106106846Y-91267314D01*
X106100500Y-91228152D01*
X106100500Y-87800097D01*
X106120185Y-87733058D01*
X106136819Y-87712416D01*
X106228421Y-87620814D01*
X106514665Y-87334570D01*
X106575984Y-87301088D01*
X106578151Y-87300637D01*
X106578840Y-87300500D01*
X106578842Y-87300500D01*
X106733497Y-87269737D01*
X106789120Y-87246697D01*
X106884808Y-87207063D01*
X106885902Y-87209705D01*
X106942193Y-87197827D01*
X107001468Y-87218353D01*
X107006242Y-87221543D01*
X107151924Y-87281886D01*
X107306574Y-87312648D01*
X107306577Y-87312649D01*
X107307424Y-87312649D01*
X107307851Y-87312774D01*
X107312639Y-87313246D01*
X107312549Y-87314154D01*
X107374463Y-87332334D01*
X107420218Y-87385138D01*
X107430162Y-87454296D01*
X107410526Y-87505540D01*
X107333501Y-87620814D01*
X107333494Y-87620827D01*
X107273156Y-87766498D01*
X107273153Y-87766510D01*
X107242392Y-87921153D01*
X107242392Y-88078846D01*
X107273153Y-88233489D01*
X107273156Y-88233501D01*
X107333494Y-88379172D01*
X107333501Y-88379185D01*
X107346750Y-88399013D01*
X107367628Y-88465691D01*
X107349143Y-88533071D01*
X107346750Y-88536795D01*
X107290609Y-88620814D01*
X107290602Y-88620827D01*
X107230264Y-88766498D01*
X107230261Y-88766510D01*
X107199500Y-88921153D01*
X107199500Y-89078846D01*
X107230261Y-89233489D01*
X107230264Y-89233501D01*
X107290602Y-89379172D01*
X107290609Y-89379185D01*
X107325304Y-89431109D01*
X107346182Y-89497786D01*
X107327698Y-89565167D01*
X107325304Y-89568891D01*
X107290609Y-89620814D01*
X107290602Y-89620827D01*
X107230264Y-89766498D01*
X107230261Y-89766510D01*
X107199500Y-89921153D01*
X107199500Y-90078846D01*
X107230261Y-90233489D01*
X107230264Y-90233501D01*
X107292558Y-90383894D01*
X107300027Y-90453363D01*
X107281099Y-90500236D01*
X107215453Y-90598482D01*
X107215443Y-90598500D01*
X107155105Y-90744171D01*
X107155102Y-90744183D01*
X107124341Y-90898826D01*
X107124341Y-91056519D01*
X107155101Y-91211161D01*
X107155103Y-91211166D01*
X107155104Y-91211170D01*
X107161929Y-91227647D01*
X107162566Y-91229185D01*
X107170032Y-91298655D01*
X107150000Y-91338670D01*
X107150000Y-92350000D01*
X107225500Y-92350000D01*
X107292539Y-92369685D01*
X107338294Y-92422489D01*
X107349500Y-92473998D01*
X107349501Y-92525998D01*
X107329818Y-92593037D01*
X107277015Y-92638793D01*
X107225501Y-92650000D01*
X107150000Y-92650000D01*
X107150000Y-93650000D01*
X107197821Y-93650000D01*
X107197831Y-93649999D01*
X107236742Y-93645815D01*
X107263258Y-93645815D01*
X107302168Y-93649999D01*
X107302179Y-93650000D01*
X107350000Y-93650000D01*
X107350000Y-93648627D01*
X107369685Y-93581588D01*
X107422489Y-93535833D01*
X107491647Y-93525889D01*
X107548309Y-93549359D01*
X107607669Y-93593796D01*
X107742517Y-93644091D01*
X107802127Y-93650500D01*
X108197872Y-93650499D01*
X108197873Y-93650498D01*
X108197885Y-93650498D01*
X108236744Y-93646320D01*
X108263252Y-93646320D01*
X108302127Y-93650500D01*
X108697872Y-93650499D01*
X108697873Y-93650498D01*
X108697885Y-93650498D01*
X108736744Y-93646320D01*
X108763252Y-93646320D01*
X108802127Y-93650500D01*
X109197872Y-93650499D01*
X109197873Y-93650498D01*
X109197885Y-93650498D01*
X109236744Y-93646320D01*
X109263252Y-93646320D01*
X109302127Y-93650500D01*
X109697872Y-93650499D01*
X109697873Y-93650498D01*
X109697885Y-93650498D01*
X109736744Y-93646320D01*
X109763252Y-93646320D01*
X109802127Y-93650500D01*
X110197872Y-93650499D01*
X110197873Y-93650498D01*
X110197885Y-93650498D01*
X110236744Y-93646320D01*
X110263252Y-93646320D01*
X110302127Y-93650500D01*
X110697872Y-93650499D01*
X110697873Y-93650498D01*
X110697885Y-93650498D01*
X110736744Y-93646320D01*
X110763252Y-93646320D01*
X110802127Y-93650500D01*
X111197872Y-93650499D01*
X111257483Y-93644091D01*
X111392331Y-93593796D01*
X111425689Y-93568823D01*
X111491152Y-93544406D01*
X111559425Y-93559257D01*
X111574305Y-93568820D01*
X111600312Y-93588289D01*
X111636108Y-93636108D01*
X111650000Y-93650000D01*
X111697819Y-93650000D01*
X111697833Y-93649999D01*
X111734395Y-93646068D01*
X111760905Y-93646068D01*
X111802127Y-93650500D01*
X112197872Y-93650499D01*
X112197873Y-93650498D01*
X112197885Y-93650498D01*
X112236744Y-93646320D01*
X112263252Y-93646320D01*
X112302127Y-93650500D01*
X112697872Y-93650499D01*
X112697873Y-93650498D01*
X112697885Y-93650498D01*
X112736744Y-93646320D01*
X112763252Y-93646320D01*
X112802127Y-93650500D01*
X113197872Y-93650499D01*
X113197873Y-93650498D01*
X113197885Y-93650498D01*
X113236744Y-93646320D01*
X113263252Y-93646320D01*
X113302127Y-93650500D01*
X113697872Y-93650499D01*
X113697873Y-93650498D01*
X113697885Y-93650498D01*
X113736744Y-93646320D01*
X113763252Y-93646320D01*
X113802127Y-93650500D01*
X114197872Y-93650499D01*
X114197873Y-93650498D01*
X114197885Y-93650498D01*
X114236744Y-93646320D01*
X114263252Y-93646320D01*
X114302127Y-93650500D01*
X114697872Y-93650499D01*
X114697873Y-93650498D01*
X114697885Y-93650498D01*
X114736744Y-93646320D01*
X114763252Y-93646320D01*
X114802127Y-93650500D01*
X115197872Y-93650499D01*
X115197873Y-93650498D01*
X115197885Y-93650498D01*
X115236744Y-93646320D01*
X115263252Y-93646320D01*
X115302127Y-93650500D01*
X115697872Y-93650499D01*
X115757483Y-93644091D01*
X115892331Y-93593796D01*
X115925689Y-93568823D01*
X115991152Y-93544406D01*
X116059425Y-93559257D01*
X116074305Y-93568820D01*
X116100312Y-93588289D01*
X116136108Y-93636108D01*
X116150000Y-93650000D01*
X116197819Y-93650000D01*
X116197833Y-93649999D01*
X116234395Y-93646068D01*
X116260905Y-93646068D01*
X116302127Y-93650500D01*
X116697872Y-93650499D01*
X116697873Y-93650498D01*
X116697885Y-93650498D01*
X116736744Y-93646320D01*
X116763252Y-93646320D01*
X116802127Y-93650500D01*
X117197872Y-93650499D01*
X117197873Y-93650498D01*
X117197885Y-93650498D01*
X117236744Y-93646320D01*
X117263252Y-93646320D01*
X117302127Y-93650500D01*
X117697872Y-93650499D01*
X117697873Y-93650498D01*
X117697885Y-93650498D01*
X117736744Y-93646320D01*
X117763252Y-93646320D01*
X117802127Y-93650500D01*
X118197872Y-93650499D01*
X118197873Y-93650498D01*
X118197885Y-93650498D01*
X118236744Y-93646320D01*
X118263252Y-93646320D01*
X118302127Y-93650500D01*
X118697872Y-93650499D01*
X118697873Y-93650498D01*
X118697885Y-93650498D01*
X118736744Y-93646320D01*
X118763252Y-93646320D01*
X118802127Y-93650500D01*
X119197872Y-93650499D01*
X119197873Y-93650498D01*
X119197885Y-93650498D01*
X119236744Y-93646320D01*
X119263252Y-93646320D01*
X119302127Y-93650500D01*
X119697872Y-93650499D01*
X119697873Y-93650498D01*
X119697885Y-93650498D01*
X119736744Y-93646320D01*
X119763252Y-93646320D01*
X119802127Y-93650500D01*
X120197872Y-93650499D01*
X120257483Y-93644091D01*
X120392331Y-93593796D01*
X120425689Y-93568823D01*
X120491152Y-93544406D01*
X120559425Y-93559257D01*
X120574305Y-93568820D01*
X120600312Y-93588289D01*
X120636108Y-93636108D01*
X120650000Y-93650000D01*
X120697819Y-93650000D01*
X120697833Y-93649999D01*
X120734395Y-93646068D01*
X120760905Y-93646068D01*
X120802127Y-93650500D01*
X121197872Y-93650499D01*
X121197873Y-93650498D01*
X121197885Y-93650498D01*
X121236744Y-93646320D01*
X121263252Y-93646320D01*
X121302127Y-93650500D01*
X121697872Y-93650499D01*
X121697873Y-93650498D01*
X121697885Y-93650498D01*
X121736744Y-93646320D01*
X121763252Y-93646320D01*
X121802127Y-93650500D01*
X122197872Y-93650499D01*
X122197873Y-93650498D01*
X122197885Y-93650498D01*
X122236744Y-93646320D01*
X122263252Y-93646320D01*
X122302127Y-93650500D01*
X122697872Y-93650499D01*
X122697873Y-93650498D01*
X122697885Y-93650498D01*
X122736744Y-93646320D01*
X122763252Y-93646320D01*
X122802127Y-93650500D01*
X123197872Y-93650499D01*
X123197873Y-93650498D01*
X123197885Y-93650498D01*
X123236744Y-93646320D01*
X123263252Y-93646320D01*
X123302127Y-93650500D01*
X123697872Y-93650499D01*
X123697873Y-93650498D01*
X123697885Y-93650498D01*
X123736744Y-93646320D01*
X123763252Y-93646320D01*
X123802127Y-93650500D01*
X124197872Y-93650499D01*
X124197873Y-93650498D01*
X124197885Y-93650498D01*
X124236744Y-93646320D01*
X124263252Y-93646320D01*
X124302127Y-93650500D01*
X124697872Y-93650499D01*
X124697873Y-93650498D01*
X124697885Y-93650498D01*
X124736744Y-93646320D01*
X124763252Y-93646320D01*
X124802127Y-93650500D01*
X125197872Y-93650499D01*
X125197873Y-93650498D01*
X125197885Y-93650498D01*
X125236744Y-93646320D01*
X125263252Y-93646320D01*
X125302127Y-93650500D01*
X125697872Y-93650499D01*
X125757483Y-93644091D01*
X125892331Y-93593796D01*
X126007546Y-93507546D01*
X126093796Y-93392331D01*
X126144091Y-93257483D01*
X126150500Y-93197873D01*
X126150499Y-92250095D01*
X126170183Y-92183057D01*
X126186813Y-92162420D01*
X127858506Y-90490728D01*
X127858511Y-90490724D01*
X127868714Y-90480520D01*
X127868716Y-90480520D01*
X127980520Y-90368716D01*
X128035235Y-90273946D01*
X128059577Y-90231785D01*
X128100500Y-90079057D01*
X128100500Y-89920943D01*
X128100500Y-88300098D01*
X128120185Y-88233059D01*
X128136819Y-88212417D01*
X128230520Y-88118716D01*
X128309577Y-87981784D01*
X128342322Y-87859577D01*
X128350500Y-87829058D01*
X128350500Y-87670943D01*
X128350500Y-86579765D01*
X128370185Y-86512726D01*
X128371398Y-86510874D01*
X128459390Y-86379185D01*
X128459390Y-86379184D01*
X128459394Y-86379179D01*
X128519737Y-86233497D01*
X128550500Y-86078842D01*
X128550500Y-85921158D01*
X128550500Y-85921155D01*
X128550499Y-85921153D01*
X128528509Y-85810604D01*
X128519737Y-85766503D01*
X128491284Y-85697810D01*
X128459397Y-85620827D01*
X128459390Y-85620814D01*
X128371789Y-85489711D01*
X128371786Y-85489707D01*
X128260292Y-85378213D01*
X128260288Y-85378210D01*
X128129185Y-85290609D01*
X128129172Y-85290602D01*
X127983501Y-85230264D01*
X127983489Y-85230261D01*
X127828845Y-85199500D01*
X127828842Y-85199500D01*
X127671158Y-85199500D01*
X127671155Y-85199500D01*
X127516510Y-85230261D01*
X127516498Y-85230264D01*
X127370827Y-85290602D01*
X127370814Y-85290609D01*
X127239711Y-85378210D01*
X127239707Y-85378213D01*
X127128213Y-85489707D01*
X127128210Y-85489711D01*
X127040609Y-85620814D01*
X127040602Y-85620827D01*
X126980264Y-85766498D01*
X126980261Y-85766510D01*
X126949500Y-85921153D01*
X126949500Y-86078846D01*
X126949596Y-86079823D01*
X126949500Y-86080328D01*
X126949500Y-86084934D01*
X126948626Y-86084934D01*
X126936567Y-86148468D01*
X126888495Y-86199171D01*
X126850383Y-86213577D01*
X126766508Y-86230261D01*
X126760676Y-86232031D01*
X126759873Y-86229385D01*
X126702056Y-86235396D01*
X126639687Y-86203902D01*
X126604245Y-86143689D01*
X126600500Y-86113444D01*
X126600500Y-84220946D01*
X126600500Y-84220944D01*
X126559577Y-84068217D01*
X126559573Y-84068210D01*
X126480524Y-83931291D01*
X126480521Y-83931287D01*
X126480520Y-83931285D01*
X126368716Y-83819481D01*
X126368715Y-83819480D01*
X126364385Y-83815150D01*
X126364374Y-83815140D01*
X124987590Y-82438356D01*
X124987588Y-82438353D01*
X124868717Y-82319482D01*
X124868716Y-82319481D01*
X124781904Y-82269361D01*
X124781904Y-82269360D01*
X124781900Y-82269359D01*
X124731785Y-82240424D01*
X124579057Y-82199500D01*
X124579054Y-82199500D01*
X114092004Y-82199500D01*
X114091992Y-82199499D01*
X114082002Y-82199499D01*
X113923887Y-82199499D01*
X113847523Y-82219961D01*
X113771158Y-82240423D01*
X113771153Y-82240426D01*
X113634234Y-82319475D01*
X113634226Y-82319481D01*
X113590527Y-82363181D01*
X113529204Y-82396666D01*
X113502846Y-82399500D01*
X111541039Y-82399500D01*
X111500118Y-82410464D01*
X111500118Y-82410465D01*
X111462850Y-82420451D01*
X111388313Y-82440423D01*
X111388308Y-82440426D01*
X111251389Y-82519475D01*
X111251381Y-82519481D01*
X109119481Y-84651381D01*
X109119475Y-84651389D01*
X109079393Y-84720815D01*
X109079393Y-84720816D01*
X109040423Y-84788314D01*
X108999499Y-84941042D01*
X108999499Y-84941044D01*
X108999499Y-85109145D01*
X108999500Y-85109158D01*
X108999500Y-85697810D01*
X108979815Y-85764849D01*
X108927011Y-85810604D01*
X108857853Y-85820548D01*
X108794297Y-85791523D01*
X108760939Y-85745262D01*
X108709397Y-85620827D01*
X108709390Y-85620814D01*
X108621789Y-85489711D01*
X108621786Y-85489707D01*
X108510292Y-85378213D01*
X108510288Y-85378210D01*
X108379185Y-85290609D01*
X108379172Y-85290602D01*
X108233501Y-85230264D01*
X108233489Y-85230261D01*
X108078845Y-85199500D01*
X108078842Y-85199500D01*
X107921158Y-85199500D01*
X107921153Y-85199500D01*
X107781663Y-85227246D01*
X107712071Y-85221019D01*
X107656894Y-85178155D01*
X107642915Y-85153090D01*
X107601436Y-85052950D01*
X107601434Y-85052947D01*
X107601432Y-85052943D01*
X107513831Y-84921840D01*
X107513828Y-84921836D01*
X107402334Y-84810342D01*
X107402330Y-84810339D01*
X107271227Y-84722738D01*
X107271214Y-84722731D01*
X107125543Y-84662393D01*
X107125531Y-84662390D01*
X106970887Y-84631629D01*
X106970884Y-84631629D01*
X106813200Y-84631629D01*
X106813197Y-84631629D01*
X106658552Y-84662390D01*
X106658540Y-84662393D01*
X106512869Y-84722731D01*
X106512856Y-84722738D01*
X106381756Y-84810337D01*
X106381751Y-84810341D01*
X106308480Y-84883611D01*
X106282802Y-84903314D01*
X106217454Y-84941044D01*
X106199155Y-84951609D01*
X106199152Y-84951611D01*
X104619481Y-86531282D01*
X104619477Y-86531287D01*
X104576796Y-86605215D01*
X104576796Y-86605216D01*
X104540423Y-86668214D01*
X104540423Y-86668215D01*
X104499499Y-86820943D01*
X104499499Y-86820945D01*
X104499499Y-86989046D01*
X104499500Y-86989059D01*
X104499500Y-89082152D01*
X104479815Y-89149191D01*
X104427011Y-89194946D01*
X104399692Y-89203769D01*
X104266508Y-89230261D01*
X104266498Y-89230264D01*
X104120827Y-89290602D01*
X104120814Y-89290609D01*
X103989711Y-89378210D01*
X103989707Y-89378213D01*
X103878213Y-89489707D01*
X103878210Y-89489711D01*
X103790609Y-89620814D01*
X103790602Y-89620827D01*
X103730264Y-89766498D01*
X103730261Y-89766510D01*
X103699500Y-89921153D01*
X103699500Y-90078846D01*
X103730261Y-90233489D01*
X103730264Y-90233501D01*
X103790602Y-90379172D01*
X103790609Y-90379185D01*
X103878602Y-90510874D01*
X103899480Y-90577551D01*
X103899500Y-90579765D01*
X103899500Y-91227648D01*
X103879815Y-91294687D01*
X103827011Y-91340442D01*
X103788752Y-91350938D01*
X103776177Y-91352289D01*
X103776170Y-91352291D01*
X103742517Y-91355909D01*
X103607669Y-91406204D01*
X103548309Y-91450640D01*
X103482846Y-91475057D01*
X103414574Y-91460205D01*
X103365168Y-91410800D01*
X103350000Y-91351373D01*
X103350000Y-91350000D01*
X103302155Y-91350000D01*
X103242627Y-91356401D01*
X103242620Y-91356403D01*
X103107913Y-91406645D01*
X103107906Y-91406649D01*
X102992812Y-91492809D01*
X102992809Y-91492812D01*
X102906649Y-91607906D01*
X102906645Y-91607913D01*
X102856403Y-91742620D01*
X102856401Y-91742627D01*
X102850000Y-91802155D01*
X100000500Y-91802155D01*
X100000500Y-76624500D01*
X100020185Y-76557461D01*
X100072989Y-76511706D01*
X100124500Y-76500500D01*
X128875500Y-76500500D01*
X128942539Y-76520185D01*
G37*
%TD.AperFunction*%
%TD*%
M02*
