%TF.GenerationSoftware,KiCad,Pcbnew,10.0.5*%
%TF.CreationDate,2026-09-12T22:34:43+08:00*%
%TF.ProjectId,RGB888-FPC40-to-FPC45,52474238-3838-42d4-9650-4334302d746f,rev?*%
%TF.SameCoordinates,Original*%
%TF.FileFunction,Paste,Top*%
%TF.FilePolarity,Positive*%
%FSLAX46Y46*%
G04 Gerber Fmt 4.6, Leading zero omitted, Abs format (unit mm)*
G04 Created by KiCad (PCBNEW 10.0.5) date 2026-09-12 22:34:43*
%MOMM*%
%LPD*%
G01*
G04 APERTURE LIST*
%ADD10R,0.300000X1.300000*%
%ADD11R,1.800000X2.200000*%
G04 APERTURE END LIST*
D10*
%TO.C,J1*%
X124600000Y-83750000D03*
X124100000Y-83750000D03*
X123600000Y-83750000D03*
X123100000Y-83750000D03*
X122600000Y-83750000D03*
X122100000Y-83750000D03*
X121600000Y-83750000D03*
X121100000Y-83750000D03*
X120600000Y-83750000D03*
X120100000Y-83750000D03*
X119600000Y-83750000D03*
X119100000Y-83750000D03*
X118600000Y-83750000D03*
X118100000Y-83750000D03*
X117600000Y-83750000D03*
X117100000Y-83750000D03*
X116600000Y-83750000D03*
X116100000Y-83750000D03*
X115600000Y-83750000D03*
X115100000Y-83750000D03*
X114600000Y-83750000D03*
X114100000Y-83750000D03*
X113600000Y-83750000D03*
X113100000Y-83750000D03*
X112600000Y-83750000D03*
X112100000Y-83750000D03*
X111600000Y-83750000D03*
X111100000Y-83750000D03*
X110600000Y-83750000D03*
X110100000Y-83750000D03*
X109600000Y-83750000D03*
X109100000Y-83750000D03*
X108600000Y-83750000D03*
X108100000Y-83750000D03*
X107600000Y-83750000D03*
X107100000Y-83750000D03*
X106600000Y-83750000D03*
X106100000Y-83750000D03*
X105600000Y-83750000D03*
X105100000Y-83750000D03*
D11*
X126500000Y-80500000D03*
X103200000Y-80500000D03*
%TD*%
M02*
