%TF.GenerationSoftware,KiCad,Pcbnew,10.0.5*%
%TF.CreationDate,2026-09-12T22:34:43+08:00*%
%TF.ProjectId,RGB888-FPC40-to-FPC45,52474238-3838-42d4-9650-4334302d746f,rev?*%
%TF.SameCoordinates,Original*%
%TF.FileFunction,Copper,L1,Top*%
%TF.FilePolarity,Positive*%
%FSLAX46Y46*%
G04 Gerber Fmt 4.6, Leading zero omitted, Abs format (unit mm)*
G04 Created by KiCad (PCBNEW 10.0.5) date 2026-09-12 22:34:43*
%MOMM*%
%LPD*%
G01*
G04 APERTURE LIST*
%TA.AperFunction,SMDPad,CuDef*%
%ADD10R,0.300000X1.300000*%
%TD*%
%TA.AperFunction,SMDPad,CuDef*%
%ADD11R,1.800000X2.200000*%
%TD*%
%TA.AperFunction,ViaPad*%
%ADD12C,0.600000*%
%TD*%
%TA.AperFunction,Conductor*%
%ADD13C,0.200000*%
%TD*%
G04 APERTURE END LIST*
D10*
%TO.P,J1,1,Pin_1_1*%
%TO.N,+5V*%
X124600000Y-83750000D03*
%TO.P,J1,2,Pin_2_2*%
X124100000Y-83750000D03*
%TO.P,J1,3,Pin_3_3*%
%TO.N,/LCD_R0*%
X123600000Y-83750000D03*
%TO.P,J1,4,Pin_4_4*%
%TO.N,/LCD_R1*%
X123100000Y-83750000D03*
%TO.P,J1,5,Pin_5_5*%
%TO.N,/LCD_R2*%
X122600000Y-83750000D03*
%TO.P,J1,6,Pin_6_6*%
%TO.N,/LCD_R3*%
X122100000Y-83750000D03*
%TO.P,J1,7,Pin_7_7*%
%TO.N,/LCD_R4*%
X121600000Y-83750000D03*
%TO.P,J1,8,Pin_8_8*%
%TO.N,/LCD_R5*%
X121100000Y-83750000D03*
%TO.P,J1,9,Pin_9_9*%
%TO.N,/LCD_R6*%
X120600000Y-83750000D03*
%TO.P,J1,10,Pin_10_10*%
%TO.N,/LCD_R7*%
X120100000Y-83750000D03*
%TO.P,J1,11,Pin_11_11*%
%TO.N,GND*%
X119600000Y-83750000D03*
%TO.P,J1,12,Pin_12_12*%
%TO.N,/LCD_G0*%
X119100000Y-83750000D03*
%TO.P,J1,13,Pin_13_13*%
%TO.N,/LCD_G1*%
X118600000Y-83750000D03*
%TO.P,J1,14,Pin_14_14*%
%TO.N,/LCD_G2*%
X118100000Y-83750000D03*
%TO.P,J1,15,Pin_15_15*%
%TO.N,/LCD_G3*%
X117600000Y-83750000D03*
%TO.P,J1,16,Pin_16_16*%
%TO.N,/LCD_G4*%
X117100000Y-83750000D03*
%TO.P,J1,17,Pin_17_17*%
%TO.N,/LCD_G5*%
X116600000Y-83750000D03*
%TO.P,J1,18,Pin_18_18*%
%TO.N,/LCD_G6*%
X116100000Y-83750000D03*
%TO.P,J1,19,Pin_19_19*%
%TO.N,/LCD_G7*%
X115600000Y-83750000D03*
%TO.P,J1,20,Pin_20_20*%
%TO.N,GND*%
X115100000Y-83750000D03*
%TO.P,J1,21,Pin_21_21*%
%TO.N,/LCD_B0*%
X114600000Y-83750000D03*
%TO.P,J1,22,Pin_22_22*%
%TO.N,/LCD_B1*%
X114100000Y-83750000D03*
%TO.P,J1,23,Pin_23_23*%
%TO.N,/LCD_B2*%
X113600000Y-83750000D03*
%TO.P,J1,24,Pin_24_24*%
%TO.N,/LCD_B3*%
X113100000Y-83750000D03*
%TO.P,J1,25,Pin_25_25*%
%TO.N,/LCD_B4*%
X112600000Y-83750000D03*
%TO.P,J1,26,Pin_26_26*%
%TO.N,/LCD_B5*%
X112100000Y-83750000D03*
%TO.P,J1,27,Pin_27_27*%
%TO.N,/LCD_B6*%
X111600000Y-83750000D03*
%TO.P,J1,28,Pin_28_28*%
%TO.N,/LCD_B7*%
X111100000Y-83750000D03*
%TO.P,J1,29,Pin_29_29*%
%TO.N,GND*%
X110600000Y-83750000D03*
%TO.P,J1,30,Pin_30_30*%
%TO.N,/LCD_CLK*%
X110100000Y-83750000D03*
%TO.P,J1,31,Pin_31_31*%
%TO.N,/LCD_HSYNC*%
X109600000Y-83750000D03*
%TO.P,J1,32,Pin_32_32*%
%TO.N,/LCD_VSYNC*%
X109100000Y-83750000D03*
%TO.P,J1,33,Pin_33_33*%
%TO.N,/LCD_DE*%
X108600000Y-83750000D03*
%TO.P,J1,34,Pin_34_34*%
%TO.N,/LCD_BL*%
X108100000Y-83750000D03*
%TO.P,J1,35,Pin_35_35*%
%TO.N,/TS_RST*%
X107600000Y-83750000D03*
%TO.P,J1,36,Pin_36_36*%
%TO.N,/TS_SDA*%
X107100000Y-83750000D03*
%TO.P,J1,37,Pin_37_37*%
%TO.N,unconnected-(J1-Pin_37-Pad37)*%
X106600000Y-83750000D03*
%TO.P,J1,38,Pin_38_38*%
%TO.N,/TS_SCL*%
X106100000Y-83750000D03*
%TO.P,J1,39,Pin_39_39*%
%TO.N,/TS_INT*%
X105600000Y-83750000D03*
%TO.P,J1,40,Pin_40_40*%
%TO.N,unconnected-(J1-Pin_40-Pad40)*%
X105100000Y-83750000D03*
D11*
%TO.P,J1,MP,MountPin_MP*%
%TO.N,GND*%
X126500000Y-80500000D03*
X103200000Y-80500000D03*
%TD*%
D12*
%TO.N,+5V*%
X127750000Y-86000000D03*
X127000000Y-87000000D03*
%TO.N,/LCD_R0*%
X122500000Y-87500000D03*
%TO.N,/LCD_R1*%
X123400000Y-85324495D03*
%TO.N,/LCD_R2*%
X122335168Y-86159817D03*
%TO.N,/LCD_R3*%
X122200000Y-85371316D03*
%TO.N,/LCD_R4*%
X120469961Y-86700000D03*
%TO.N,/LCD_R5*%
X121099418Y-86029814D03*
%TO.N,/LCD_R6*%
X120500000Y-85500000D03*
%TO.N,/LCD_R7*%
X119700000Y-85050000D03*
%TO.N,GND*%
X106500000Y-89500000D03*
X103000000Y-90500000D03*
X110500000Y-81500000D03*
X119500000Y-81500000D03*
X127500000Y-83000000D03*
X106500000Y-91000000D03*
X106500000Y-88000000D03*
X111500000Y-95000000D03*
X124000000Y-95000000D03*
X107500000Y-95000000D03*
X120500000Y-95000000D03*
X116000000Y-95000000D03*
X106000000Y-95000000D03*
X128000000Y-92000000D03*
X111000000Y-88500000D03*
X111000000Y-90500000D03*
X115000000Y-81500000D03*
X107000000Y-81500000D03*
%TO.N,/LCD_G0*%
X120400000Y-90745588D03*
%TO.N,/LCD_G1*%
X119873645Y-89932129D03*
%TO.N,/LCD_G2*%
X119026554Y-89473446D03*
%TO.N,/LCD_G3*%
X118765687Y-90500000D03*
%TO.N,/LCD_G4*%
X117970081Y-90416243D03*
%TO.N,/LCD_G5*%
X117000000Y-90000000D03*
%TO.N,/LCD_G6*%
X116199997Y-90000000D03*
%TO.N,/LCD_G7*%
X116000000Y-91000000D03*
%TO.N,/LCD_B0*%
X124618466Y-90730064D03*
%TO.N,/LCD_B1*%
X125038479Y-89638479D03*
%TO.N,/LCD_B2*%
X125555636Y-88555636D03*
%TO.N,/LCD_B3*%
X126022793Y-87522793D03*
%TO.N,/LCD_B4*%
X113000582Y-87000000D03*
%TO.N,/LCD_B5*%
X112222782Y-86626539D03*
%TO.N,/LCD_B6*%
X111599758Y-86124697D03*
%TO.N,/LCD_B7*%
X111100000Y-85500000D03*
%TO.N,/LCD_CLK*%
X107924841Y-90977673D03*
%TO.N,/LCD_HSYNC*%
X108000000Y-90000000D03*
%TO.N,/LCD_VSYNC*%
X108000000Y-89000000D03*
%TO.N,/LCD_DE*%
X108042892Y-88000000D03*
%TO.N,/LCD_BL*%
X108000000Y-86000000D03*
%TO.N,/TS_RST*%
X107385421Y-86512149D03*
%TO.N,/TS_SDA*%
X106892042Y-85432129D03*
%TO.N,/TS_SCL*%
X106500000Y-86500000D03*
%TO.N,/TS_INT*%
X104500000Y-90000000D03*
%TD*%
%TO.N,+5V*%
D13*
X127000000Y-87000000D02*
X126500000Y-87000000D01*
X127750000Y-86000000D02*
X126500000Y-86000000D01*
X124100000Y-83750000D02*
X124600000Y-83750000D01*
X126500000Y-86000000D02*
X124600000Y-84100000D01*
X124100000Y-84600000D02*
X124100000Y-83750000D01*
X124600000Y-84100000D02*
X124600000Y-83750000D01*
X126500000Y-87000000D02*
X124100000Y-84600000D01*
%TO.N,/LCD_R0*%
X124000000Y-85075966D02*
X124000000Y-86000000D01*
X123600000Y-83750000D02*
X123600000Y-84675966D01*
X124000000Y-86000000D02*
X122500000Y-87500000D01*
X123600000Y-84675966D02*
X124000000Y-85075966D01*
%TO.N,/LCD_R1*%
X123100000Y-83750000D02*
X123100000Y-84857101D01*
X123400000Y-85157101D02*
X123400000Y-85324495D01*
X123100000Y-84857101D02*
X123400000Y-85157101D01*
%TO.N,/LCD_R2*%
X122800000Y-85122787D02*
X122800000Y-85694985D01*
X122600000Y-84922787D02*
X122600000Y-83750000D01*
X122600000Y-84922787D02*
X122800000Y-85122787D01*
X122800000Y-85694985D02*
X122335168Y-86159817D01*
%TO.N,/LCD_R3*%
X122100000Y-85271316D02*
X122200000Y-85371316D01*
X122100000Y-83750000D02*
X122100000Y-85271316D01*
%TO.N,/LCD_R4*%
X120469961Y-86700000D02*
X121300000Y-86700000D01*
X121699418Y-85781285D02*
X121600000Y-85681867D01*
X121300000Y-86700000D02*
X121699418Y-86300582D01*
X121600000Y-85681867D02*
X121600000Y-83750000D01*
X121699418Y-86300582D02*
X121699418Y-85781285D01*
%TO.N,/LCD_R5*%
X121100000Y-86029232D02*
X121100000Y-83750000D01*
X121099418Y-86029814D02*
X121100000Y-86029232D01*
%TO.N,/LCD_R6*%
X120600000Y-85400000D02*
X120500000Y-85500000D01*
X120600000Y-83750000D02*
X120600000Y-85400000D01*
%TO.N,/LCD_R7*%
X120100000Y-84650000D02*
X120100000Y-83750000D01*
X119700000Y-85050000D02*
X120100000Y-84650000D01*
%TO.N,GND*%
X115100000Y-83750000D02*
X115100000Y-81600000D01*
X119600000Y-81600000D02*
X119500000Y-81500000D01*
X111000000Y-88500000D02*
X111000000Y-90500000D01*
X110500000Y-82000000D02*
X110600000Y-82100000D01*
X110600000Y-82100000D02*
X110600000Y-83750000D01*
X119600000Y-83750000D02*
X119600000Y-81600000D01*
X115100000Y-81600000D02*
X115000000Y-81500000D01*
X110500000Y-81500000D02*
X110500000Y-82000000D01*
X106500000Y-89500000D02*
X106500000Y-91000000D01*
X106500000Y-88000000D02*
X106500000Y-89500000D01*
%TO.N,/LCD_G0*%
X119400000Y-87910050D02*
X119100000Y-87610050D01*
X119100000Y-87610050D02*
X119100000Y-83750000D01*
X120473645Y-90180658D02*
X120473645Y-89683600D01*
X120473645Y-89683600D02*
X120273645Y-89483600D01*
X120400000Y-90745588D02*
X120400000Y-90254303D01*
X119400000Y-88334314D02*
X119400000Y-87910050D01*
X120273645Y-89207959D02*
X119400000Y-88334314D01*
X120400000Y-90254303D02*
X120473645Y-90180658D01*
X120273645Y-89483600D02*
X120273645Y-89207959D01*
%TO.N,/LCD_G1*%
X119000000Y-88500000D02*
X119873645Y-89373645D01*
X119873645Y-89373645D02*
X119873645Y-89932129D01*
X119000000Y-88075736D02*
X119000000Y-88500000D01*
X118600000Y-87675736D02*
X119000000Y-88075736D01*
X118600000Y-83750000D02*
X118600000Y-87675736D01*
%TO.N,/LCD_G2*%
X119026554Y-89473446D02*
X118973446Y-89473446D01*
X118973446Y-89473446D02*
X118100000Y-88600000D01*
X118100000Y-88600000D02*
X118100000Y-83750000D01*
%TO.N,/LCD_G3*%
X117600000Y-83750000D02*
X117600000Y-88895422D01*
X118765687Y-90061109D02*
X118765687Y-90500000D01*
X117600000Y-88895422D02*
X118765687Y-90061109D01*
%TO.N,/LCD_G4*%
X117707856Y-89586120D02*
X117100000Y-88978264D01*
X117970081Y-90416243D02*
X117707856Y-90154018D01*
X117100000Y-88978264D02*
X117100000Y-83750000D01*
X117707856Y-90154018D02*
X117707856Y-89586120D01*
%TO.N,/LCD_G5*%
X117000000Y-89586306D02*
X116600000Y-89186306D01*
X116600000Y-89186306D02*
X116600000Y-83750000D01*
X117000000Y-90000000D02*
X117000000Y-89586306D01*
%TO.N,/LCD_G6*%
X116199997Y-89634833D02*
X116100000Y-89534836D01*
X116100000Y-89534836D02*
X116100000Y-83750000D01*
X116199997Y-90000000D02*
X116199997Y-89634833D01*
%TO.N,/LCD_G7*%
X115200582Y-87911269D02*
X115200582Y-90200582D01*
X115200582Y-87911269D02*
X115200580Y-86088727D01*
X115200582Y-90200582D02*
X116000000Y-91000000D01*
X115550000Y-85739307D02*
X115550000Y-83800000D01*
X116000000Y-91000000D02*
X116000000Y-90957189D01*
X115550000Y-83800000D02*
X115600000Y-83750000D01*
X115200580Y-86088727D02*
X115550000Y-85739307D01*
%TO.N,/LCD_B0*%
X114800581Y-86254413D02*
X114600000Y-86053833D01*
X124618466Y-90730064D02*
X125000000Y-91111598D01*
X114600000Y-86053833D02*
X114600000Y-83750000D01*
X114600000Y-90902942D02*
X114600000Y-87946167D01*
X115697058Y-92000000D02*
X114600000Y-90902942D01*
X114800582Y-87745584D02*
X114800581Y-86254413D01*
X125000000Y-91111598D02*
X125000000Y-91500000D01*
X124500000Y-92000000D02*
X115697058Y-92000000D01*
X125000000Y-91500000D02*
X124500000Y-92000000D01*
X114600000Y-87946167D02*
X114800582Y-87745584D01*
%TO.N,/LCD_B1*%
X114200000Y-86219518D02*
X114200000Y-84700000D01*
X114400582Y-87579899D02*
X114400581Y-86420099D01*
X115631372Y-92500000D02*
X114200000Y-91068628D01*
X114200000Y-87780481D02*
X114400582Y-87579899D01*
X114400581Y-86420099D02*
X114200000Y-86219518D01*
X114200000Y-84700000D02*
X114150000Y-84700000D01*
X125038479Y-89638479D02*
X125500000Y-90100000D01*
X114150002Y-84650004D02*
X114100000Y-84600000D01*
X124750000Y-92500000D02*
X115631372Y-92500000D01*
X114150000Y-84700000D02*
X114150002Y-84650004D01*
X125500000Y-90100000D02*
X125500000Y-91750000D01*
X125500000Y-91750000D02*
X124750000Y-92500000D01*
X114200000Y-91068628D02*
X114200000Y-87780481D01*
X114100000Y-84600000D02*
X114100000Y-83750000D01*
%TO.N,/LCD_B2*%
X113750000Y-84815686D02*
X113700000Y-84765685D01*
X113700000Y-84700000D02*
X113650000Y-84700000D01*
X114000582Y-86585785D02*
X113800000Y-86385204D01*
X124815686Y-93000000D02*
X125900000Y-91915686D01*
X115565686Y-93000000D02*
X113800000Y-91234314D01*
X113800000Y-91234314D02*
X113800000Y-87614797D01*
X113800000Y-84915685D02*
X113750000Y-84865685D01*
X125555636Y-88555636D02*
X125900000Y-88900000D01*
X113800000Y-86385204D02*
X113800000Y-84915685D01*
X124465685Y-93000000D02*
X124815686Y-93000000D01*
X113650000Y-84700000D02*
X113650000Y-84650000D01*
X114000582Y-87414214D02*
X114000582Y-86585785D01*
X113800000Y-87614797D02*
X114000582Y-87414214D01*
X124465685Y-93000000D02*
X115565686Y-93000000D01*
X125900000Y-88900000D02*
X125900000Y-91915686D01*
X113750000Y-84865685D02*
X113750000Y-84815686D01*
X113700000Y-84765685D02*
X113700000Y-84700000D01*
X113600000Y-84600000D02*
X113600000Y-83750000D01*
X113650000Y-84650000D02*
X113600000Y-84600000D01*
%TO.N,/LCD_B3*%
X115400000Y-93400000D02*
X113400000Y-91399999D01*
X113600582Y-86751471D02*
X113400000Y-86550889D01*
X113100000Y-84788727D02*
X113100000Y-83750000D01*
X126300000Y-92081372D02*
X126300000Y-87800000D01*
X124981371Y-93400000D02*
X115400000Y-93400000D01*
X113600582Y-87248529D02*
X113600582Y-86751471D01*
X113400000Y-91399999D02*
X113400000Y-87449112D01*
X126300000Y-87800000D02*
X126022793Y-87522793D01*
X113400000Y-87449112D02*
X113600582Y-87248529D01*
X113400000Y-85088727D02*
X113100000Y-84788727D01*
X124981371Y-93400000D02*
X126300000Y-92081372D01*
X113400000Y-86550889D02*
X113400000Y-85088727D01*
%TO.N,/LCD_B4*%
X113000000Y-86999418D02*
X113000000Y-85254413D01*
X113000582Y-87000000D02*
X113000000Y-86999418D01*
X112600000Y-84854413D02*
X112600000Y-83750000D01*
X113000000Y-85254413D02*
X112600000Y-84854413D01*
%TO.N,/LCD_B5*%
X112222782Y-86626539D02*
X112400582Y-86448739D01*
X112400582Y-85220681D02*
X112100000Y-84920099D01*
X112100000Y-84920099D02*
X112100000Y-83750000D01*
X112400582Y-86448739D02*
X112400582Y-85220681D01*
%TO.N,/LCD_B6*%
X111875303Y-86124697D02*
X112000000Y-86000000D01*
X112000000Y-85385785D02*
X111600000Y-84985785D01*
X112000000Y-86000000D02*
X112000000Y-85385785D01*
X111600000Y-84985785D02*
X111600000Y-83750000D01*
X111599758Y-86124697D02*
X111875303Y-86124697D01*
%TO.N,/LCD_B7*%
X111100000Y-85500000D02*
X111100000Y-83750000D01*
%TO.N,/LCD_CLK*%
X110100000Y-88802514D02*
X110100000Y-83750000D01*
X107924841Y-90977673D02*
X110100000Y-88802514D01*
%TO.N,/LCD_HSYNC*%
X109600000Y-88400000D02*
X108000000Y-90000000D01*
X109600000Y-83750000D02*
X109600000Y-88400000D01*
%TO.N,/LCD_VSYNC*%
X109100000Y-87900000D02*
X109100000Y-83750000D01*
X108000000Y-89000000D02*
X109100000Y-87900000D01*
%TO.N,/LCD_DE*%
X108042892Y-88000000D02*
X108042892Y-87657105D01*
X108042892Y-87657105D02*
X108600000Y-87099997D01*
X108600000Y-87099997D02*
X108600000Y-83750000D01*
%TO.N,/LCD_BL*%
X108100000Y-85900000D02*
X108000000Y-86000000D01*
X108100000Y-83750000D02*
X108100000Y-85900000D01*
%TO.N,/TS_RST*%
X107385421Y-86512149D02*
X107400000Y-86497570D01*
X107400000Y-85751471D02*
X107600000Y-85551471D01*
X107400000Y-86497570D02*
X107400000Y-85751471D01*
X107600000Y-85551471D02*
X107600000Y-83750000D01*
%TO.N,/TS_SDA*%
X106892042Y-85432129D02*
X107067871Y-85432129D01*
X107100000Y-85400000D02*
X107100000Y-83750000D01*
X107067871Y-85432129D02*
X107100000Y-85400000D01*
%TO.N,/TS_SCL*%
X106500000Y-85951471D02*
X106100000Y-85551471D01*
X106100000Y-85551471D02*
X106100000Y-83750000D01*
X106500000Y-86500000D02*
X106500000Y-85951471D01*
%TO.N,/TS_INT*%
X105600000Y-84900000D02*
X105600000Y-83750000D01*
X104500000Y-86000000D02*
X105600000Y-84900000D01*
X104500000Y-90000000D02*
X104500000Y-86000000D01*
%TD*%
%TA.AperFunction,Conductor*%
%TO.N,GND*%
G36*
X128942539Y-76520185D02*
G01*
X128988294Y-76572989D01*
X128999500Y-76624500D01*
X128999500Y-99875500D01*
X128979815Y-99942539D01*
X128927011Y-99988294D01*
X128875500Y-99999500D01*
X100124500Y-99999500D01*
X100057461Y-99979815D01*
X100011706Y-99927011D01*
X100000500Y-99875500D01*
X100000500Y-89921153D01*
X103699500Y-89921153D01*
X103699500Y-90078846D01*
X103730261Y-90233489D01*
X103730264Y-90233501D01*
X103790602Y-90379172D01*
X103790609Y-90379185D01*
X103878210Y-90510288D01*
X103878213Y-90510292D01*
X103989707Y-90621786D01*
X103989711Y-90621789D01*
X104120814Y-90709390D01*
X104120827Y-90709397D01*
X104252375Y-90763885D01*
X104266503Y-90769737D01*
X104421153Y-90800499D01*
X104421156Y-90800500D01*
X104421158Y-90800500D01*
X104578844Y-90800500D01*
X104578845Y-90800499D01*
X104733497Y-90769737D01*
X104879179Y-90709394D01*
X105010289Y-90621789D01*
X105121789Y-90510289D01*
X105209394Y-90379179D01*
X105214684Y-90366409D01*
X105242930Y-90298216D01*
X105269737Y-90233497D01*
X105300500Y-90078842D01*
X105300500Y-89921158D01*
X105300500Y-89921155D01*
X105300499Y-89921153D01*
X105290715Y-89871967D01*
X105269737Y-89766503D01*
X105249367Y-89717325D01*
X105209397Y-89620827D01*
X105209390Y-89620814D01*
X105121398Y-89489125D01*
X105100520Y-89422447D01*
X105100500Y-89420234D01*
X105100500Y-86300096D01*
X105120185Y-86233057D01*
X105136815Y-86212419D01*
X105436818Y-85912415D01*
X105498141Y-85878931D01*
X105567833Y-85883915D01*
X105611770Y-85916402D01*
X105613733Y-85914440D01*
X105738349Y-86039056D01*
X105738355Y-86039061D01*
X105740662Y-86041368D01*
X105774147Y-86102691D01*
X105769163Y-86172383D01*
X105767542Y-86176501D01*
X105730264Y-86266498D01*
X105730261Y-86266510D01*
X105699500Y-86421153D01*
X105699500Y-86578846D01*
X105730261Y-86733489D01*
X105730264Y-86733501D01*
X105790602Y-86879172D01*
X105790609Y-86879185D01*
X105878210Y-87010288D01*
X105878213Y-87010292D01*
X105989707Y-87121786D01*
X105989711Y-87121789D01*
X106120814Y-87209390D01*
X106120827Y-87209397D01*
X106241974Y-87259577D01*
X106266503Y-87269737D01*
X106387219Y-87293749D01*
X106421153Y-87300499D01*
X106421156Y-87300500D01*
X106421158Y-87300500D01*
X106578844Y-87300500D01*
X106578845Y-87300499D01*
X106733497Y-87269737D01*
X106789120Y-87246697D01*
X106884808Y-87207063D01*
X106885902Y-87209705D01*
X106942193Y-87197827D01*
X107001468Y-87218353D01*
X107006242Y-87221543D01*
X107151924Y-87281886D01*
X107306574Y-87312648D01*
X107306577Y-87312649D01*
X107307424Y-87312649D01*
X107307851Y-87312774D01*
X107312639Y-87313246D01*
X107312549Y-87314154D01*
X107374463Y-87332334D01*
X107420218Y-87385138D01*
X107430162Y-87454296D01*
X107410526Y-87505540D01*
X107333501Y-87620814D01*
X107333494Y-87620827D01*
X107273156Y-87766498D01*
X107273153Y-87766510D01*
X107242392Y-87921153D01*
X107242392Y-88078846D01*
X107273153Y-88233489D01*
X107273156Y-88233501D01*
X107333494Y-88379172D01*
X107333501Y-88379185D01*
X107346750Y-88399013D01*
X107367628Y-88465691D01*
X107349143Y-88533071D01*
X107346750Y-88536795D01*
X107290609Y-88620814D01*
X107290602Y-88620827D01*
X107230264Y-88766498D01*
X107230261Y-88766510D01*
X107199500Y-88921153D01*
X107199500Y-89078846D01*
X107230261Y-89233489D01*
X107230264Y-89233501D01*
X107290602Y-89379172D01*
X107290609Y-89379185D01*
X107325304Y-89431109D01*
X107346182Y-89497786D01*
X107327698Y-89565167D01*
X107325304Y-89568891D01*
X107290609Y-89620814D01*
X107290602Y-89620827D01*
X107230264Y-89766498D01*
X107230261Y-89766510D01*
X107199500Y-89921153D01*
X107199500Y-90078846D01*
X107230261Y-90233489D01*
X107230264Y-90233501D01*
X107292558Y-90383894D01*
X107300027Y-90453363D01*
X107281099Y-90500236D01*
X107215453Y-90598482D01*
X107215443Y-90598500D01*
X107155105Y-90744171D01*
X107155102Y-90744183D01*
X107124341Y-90898826D01*
X107124341Y-91056519D01*
X107155102Y-91211162D01*
X107155105Y-91211174D01*
X107215443Y-91356845D01*
X107215450Y-91356858D01*
X107303051Y-91487961D01*
X107303054Y-91487965D01*
X107414548Y-91599459D01*
X107414552Y-91599462D01*
X107545655Y-91687063D01*
X107545668Y-91687070D01*
X107691339Y-91747408D01*
X107691344Y-91747410D01*
X107798416Y-91768708D01*
X107845994Y-91778172D01*
X107845997Y-91778173D01*
X107845999Y-91778173D01*
X108003685Y-91778173D01*
X108003686Y-91778172D01*
X108158338Y-91747410D01*
X108304020Y-91687067D01*
X108435130Y-91599462D01*
X108546630Y-91487962D01*
X108634235Y-91356852D01*
X108694578Y-91211170D01*
X108720899Y-91078846D01*
X108725479Y-91055823D01*
X108757864Y-90993912D01*
X108759360Y-90992388D01*
X110458506Y-89293241D01*
X110458511Y-89293238D01*
X110468714Y-89283034D01*
X110468716Y-89283034D01*
X110580520Y-89171230D01*
X110659577Y-89034298D01*
X110691846Y-88913869D01*
X110700500Y-88881572D01*
X110700500Y-88723457D01*
X110700500Y-86628498D01*
X110720185Y-86561459D01*
X110772989Y-86515704D01*
X110842147Y-86505760D01*
X110905703Y-86534785D01*
X110927602Y-86559607D01*
X110977968Y-86634985D01*
X110977971Y-86634989D01*
X111089465Y-86746483D01*
X111089469Y-86746486D01*
X111220572Y-86834087D01*
X111220585Y-86834094D01*
X111344151Y-86885276D01*
X111366261Y-86894434D01*
X111411359Y-86903404D01*
X111473267Y-86935788D01*
X111501726Y-86977566D01*
X111513385Y-87005712D01*
X111513391Y-87005724D01*
X111600992Y-87136827D01*
X111600995Y-87136831D01*
X111712489Y-87248325D01*
X111712493Y-87248328D01*
X111843596Y-87335929D01*
X111843609Y-87335936D01*
X111948023Y-87379185D01*
X111989285Y-87396276D01*
X112124922Y-87423256D01*
X112143935Y-87427038D01*
X112143938Y-87427039D01*
X112256887Y-87427039D01*
X112323926Y-87446724D01*
X112359989Y-87482147D01*
X112378795Y-87510292D01*
X112490289Y-87621786D01*
X112490293Y-87621789D01*
X112621396Y-87709390D01*
X112621409Y-87709397D01*
X112722952Y-87751457D01*
X112777356Y-87795298D01*
X112799421Y-87861592D01*
X112799500Y-87866018D01*
X112799500Y-91313328D01*
X112799499Y-91313346D01*
X112799499Y-91479053D01*
X112799498Y-91479053D01*
X112840423Y-91631785D01*
X112851227Y-91650496D01*
X112851228Y-91650501D01*
X112851229Y-91650501D01*
X112919475Y-91768708D01*
X112919481Y-91768716D01*
X113038349Y-91887584D01*
X113038355Y-91887589D01*
X114915139Y-93764374D01*
X114915149Y-93764385D01*
X114919479Y-93768715D01*
X114919480Y-93768716D01*
X115031284Y-93880520D01*
X115118095Y-93930639D01*
X115118097Y-93930641D01*
X115156151Y-93952611D01*
X115168215Y-93959577D01*
X115320943Y-94000501D01*
X115320946Y-94000501D01*
X115486653Y-94000501D01*
X115486669Y-94000500D01*
X124894701Y-94000500D01*
X124894717Y-94000501D01*
X124902313Y-94000501D01*
X125060426Y-94000501D01*
X125060428Y-94000501D01*
X125213155Y-93959577D01*
X125350087Y-93880520D01*
X126658506Y-92572099D01*
X126658511Y-92572096D01*
X126668714Y-92561892D01*
X126668716Y-92561892D01*
X126780520Y-92450088D01*
X126859577Y-92313156D01*
X126900500Y-92160429D01*
X126900500Y-87924500D01*
X126920185Y-87857461D01*
X126972989Y-87811706D01*
X127024500Y-87800500D01*
X127078844Y-87800500D01*
X127078845Y-87800499D01*
X127233497Y-87769737D01*
X127379179Y-87709394D01*
X127510289Y-87621789D01*
X127621789Y-87510289D01*
X127709394Y-87379179D01*
X127716794Y-87361315D01*
X127728798Y-87332334D01*
X127769737Y-87233497D01*
X127800500Y-87078842D01*
X127800500Y-86921158D01*
X127800500Y-86921155D01*
X127800405Y-86920191D01*
X127800500Y-86919690D01*
X127800500Y-86915066D01*
X127801377Y-86915066D01*
X127813425Y-86851546D01*
X127861490Y-86800836D01*
X127899617Y-86786422D01*
X127913560Y-86783648D01*
X127983497Y-86769737D01*
X128129179Y-86709394D01*
X128260289Y-86621789D01*
X128371789Y-86510289D01*
X128459394Y-86379179D01*
X128463728Y-86368717D01*
X128492151Y-86300096D01*
X128519737Y-86233497D01*
X128550500Y-86078842D01*
X128550500Y-85921158D01*
X128550500Y-85921155D01*
X128550499Y-85921153D01*
X128526292Y-85799457D01*
X128519737Y-85766503D01*
X128463728Y-85631284D01*
X128459397Y-85620827D01*
X128459390Y-85620814D01*
X128371789Y-85489711D01*
X128371786Y-85489707D01*
X128260292Y-85378213D01*
X128260288Y-85378210D01*
X128129185Y-85290609D01*
X128129172Y-85290602D01*
X127983501Y-85230264D01*
X127983489Y-85230261D01*
X127828845Y-85199500D01*
X127828842Y-85199500D01*
X127671158Y-85199500D01*
X127671155Y-85199500D01*
X127516510Y-85230261D01*
X127516498Y-85230264D01*
X127370827Y-85290602D01*
X127370814Y-85290609D01*
X127239125Y-85378602D01*
X127172447Y-85399480D01*
X127170234Y-85399500D01*
X126800098Y-85399500D01*
X126733059Y-85379815D01*
X126712417Y-85363181D01*
X125286818Y-83937582D01*
X125253333Y-83876259D01*
X125250499Y-83849901D01*
X125250499Y-83052129D01*
X125250498Y-83052123D01*
X125250497Y-83052116D01*
X125244091Y-82992517D01*
X125193796Y-82857669D01*
X125193795Y-82857668D01*
X125193793Y-82857664D01*
X125107547Y-82742455D01*
X125107544Y-82742452D01*
X124992335Y-82656206D01*
X124992328Y-82656202D01*
X124857486Y-82605910D01*
X124857485Y-82605909D01*
X124857483Y-82605909D01*
X124797873Y-82599500D01*
X124797863Y-82599500D01*
X124402130Y-82599500D01*
X124402119Y-82599501D01*
X124363253Y-82603679D01*
X124336748Y-82603679D01*
X124297874Y-82599500D01*
X123902130Y-82599500D01*
X123902119Y-82599501D01*
X123863253Y-82603679D01*
X123836748Y-82603679D01*
X123797874Y-82599500D01*
X123402130Y-82599500D01*
X123402119Y-82599501D01*
X123363253Y-82603679D01*
X123336748Y-82603679D01*
X123297874Y-82599500D01*
X122902130Y-82599500D01*
X122902119Y-82599501D01*
X122863253Y-82603679D01*
X122836748Y-82603679D01*
X122797874Y-82599500D01*
X122402130Y-82599500D01*
X122402119Y-82599501D01*
X122363253Y-82603679D01*
X122336748Y-82603679D01*
X122297874Y-82599500D01*
X121902130Y-82599500D01*
X121902119Y-82599501D01*
X121863253Y-82603679D01*
X121836748Y-82603679D01*
X121797874Y-82599500D01*
X121402130Y-82599500D01*
X121402119Y-82599501D01*
X121363253Y-82603679D01*
X121336748Y-82603679D01*
X121297874Y-82599500D01*
X120902130Y-82599500D01*
X120902119Y-82599501D01*
X120863253Y-82603679D01*
X120836748Y-82603679D01*
X120797874Y-82599500D01*
X120402130Y-82599500D01*
X120402119Y-82599501D01*
X120363253Y-82603679D01*
X120336748Y-82603679D01*
X120297874Y-82599500D01*
X119902132Y-82599500D01*
X119902117Y-82599501D01*
X119876177Y-82602289D01*
X119876170Y-82602291D01*
X119842517Y-82605909D01*
X119707669Y-82656204D01*
X119674308Y-82681177D01*
X119608845Y-82705593D01*
X119540572Y-82690741D01*
X119525694Y-82681179D01*
X119499688Y-82661711D01*
X119463887Y-82613887D01*
X119450000Y-82600000D01*
X119402165Y-82600000D01*
X119365598Y-82603931D01*
X119339092Y-82603931D01*
X119297873Y-82599500D01*
X118902130Y-82599500D01*
X118902119Y-82599501D01*
X118863253Y-82603679D01*
X118836748Y-82603679D01*
X118797874Y-82599500D01*
X118402130Y-82599500D01*
X118402119Y-82599501D01*
X118363253Y-82603679D01*
X118336748Y-82603679D01*
X118297874Y-82599500D01*
X117902130Y-82599500D01*
X117902119Y-82599501D01*
X117863253Y-82603679D01*
X117836748Y-82603679D01*
X117797874Y-82599500D01*
X117402130Y-82599500D01*
X117402119Y-82599501D01*
X117363253Y-82603679D01*
X117336748Y-82603679D01*
X117297874Y-82599500D01*
X116902130Y-82599500D01*
X116902119Y-82599501D01*
X116863253Y-82603679D01*
X116836748Y-82603679D01*
X116797874Y-82599500D01*
X116402130Y-82599500D01*
X116402119Y-82599501D01*
X116363253Y-82603679D01*
X116336748Y-82603679D01*
X116297874Y-82599500D01*
X115902130Y-82599500D01*
X115902119Y-82599501D01*
X115863253Y-82603679D01*
X115836748Y-82603679D01*
X115797874Y-82599500D01*
X115402132Y-82599500D01*
X115402117Y-82599501D01*
X115376177Y-82602289D01*
X115376170Y-82602291D01*
X115342517Y-82605909D01*
X115207669Y-82656204D01*
X115174308Y-82681177D01*
X115108845Y-82705593D01*
X115040572Y-82690741D01*
X115025694Y-82681179D01*
X114999688Y-82661711D01*
X114963887Y-82613887D01*
X114950000Y-82600000D01*
X114902165Y-82600000D01*
X114865598Y-82603931D01*
X114839092Y-82603931D01*
X114797873Y-82599500D01*
X114402130Y-82599500D01*
X114402119Y-82599501D01*
X114363253Y-82603679D01*
X114336748Y-82603679D01*
X114297874Y-82599500D01*
X113902130Y-82599500D01*
X113902119Y-82599501D01*
X113863253Y-82603679D01*
X113836748Y-82603679D01*
X113797874Y-82599500D01*
X113402130Y-82599500D01*
X113402119Y-82599501D01*
X113363253Y-82603679D01*
X113336748Y-82603679D01*
X113297874Y-82599500D01*
X112902130Y-82599500D01*
X112902119Y-82599501D01*
X112863253Y-82603679D01*
X112836748Y-82603679D01*
X112797874Y-82599500D01*
X112402130Y-82599500D01*
X112402119Y-82599501D01*
X112363253Y-82603679D01*
X112336748Y-82603679D01*
X112297874Y-82599500D01*
X111902130Y-82599500D01*
X111902119Y-82599501D01*
X111863253Y-82603679D01*
X111836748Y-82603679D01*
X111797874Y-82599500D01*
X111402130Y-82599500D01*
X111402119Y-82599501D01*
X111363253Y-82603679D01*
X111336748Y-82603679D01*
X111297874Y-82599500D01*
X110902132Y-82599500D01*
X110902117Y-82599501D01*
X110876177Y-82602289D01*
X110876170Y-82602291D01*
X110842517Y-82605909D01*
X110707669Y-82656204D01*
X110674308Y-82681177D01*
X110608845Y-82705593D01*
X110540572Y-82690741D01*
X110525694Y-82681179D01*
X110499688Y-82661711D01*
X110463887Y-82613887D01*
X110450000Y-82600000D01*
X110402165Y-82600000D01*
X110365598Y-82603931D01*
X110339092Y-82603931D01*
X110297873Y-82599500D01*
X109902130Y-82599500D01*
X109902119Y-82599501D01*
X109863253Y-82603679D01*
X109836748Y-82603679D01*
X109797874Y-82599500D01*
X109402130Y-82599500D01*
X109402119Y-82599501D01*
X109363253Y-82603679D01*
X109336748Y-82603679D01*
X109297874Y-82599500D01*
X108902130Y-82599500D01*
X108902119Y-82599501D01*
X108863253Y-82603679D01*
X108836748Y-82603679D01*
X108797874Y-82599500D01*
X108402130Y-82599500D01*
X108402119Y-82599501D01*
X108363253Y-82603679D01*
X108336748Y-82603679D01*
X108297874Y-82599500D01*
X107902130Y-82599500D01*
X107902119Y-82599501D01*
X107863253Y-82603679D01*
X107836748Y-82603679D01*
X107797874Y-82599500D01*
X107402130Y-82599500D01*
X107402119Y-82599501D01*
X107363253Y-82603679D01*
X107336748Y-82603679D01*
X107297874Y-82599500D01*
X106902130Y-82599500D01*
X106902119Y-82599501D01*
X106863253Y-82603679D01*
X106836748Y-82603679D01*
X106797874Y-82599500D01*
X106402130Y-82599500D01*
X106402119Y-82599501D01*
X106363253Y-82603679D01*
X106336748Y-82603679D01*
X106297874Y-82599500D01*
X105902130Y-82599500D01*
X105902119Y-82599501D01*
X105863253Y-82603679D01*
X105836748Y-82603679D01*
X105797874Y-82599500D01*
X105402130Y-82599500D01*
X105402119Y-82599501D01*
X105363253Y-82603679D01*
X105336748Y-82603679D01*
X105297874Y-82599500D01*
X104902129Y-82599500D01*
X104902123Y-82599501D01*
X104842516Y-82605908D01*
X104707671Y-82656202D01*
X104707664Y-82656206D01*
X104592455Y-82742452D01*
X104592452Y-82742455D01*
X104506206Y-82857664D01*
X104506202Y-82857671D01*
X104455908Y-82992517D01*
X104449501Y-83052116D01*
X104449501Y-83052123D01*
X104449500Y-83052135D01*
X104449500Y-84447870D01*
X104449501Y-84447876D01*
X104455908Y-84507483D01*
X104506202Y-84642328D01*
X104506206Y-84642335D01*
X104592452Y-84757544D01*
X104592453Y-84757544D01*
X104592454Y-84757546D01*
X104624581Y-84781596D01*
X104649898Y-84800549D01*
X104691768Y-84856483D01*
X104696752Y-84926175D01*
X104663267Y-84987496D01*
X104131286Y-85519478D01*
X104019481Y-85631282D01*
X104019479Y-85631284D01*
X103990689Y-85681150D01*
X103978521Y-85702228D01*
X103959472Y-85735221D01*
X103940423Y-85768214D01*
X103929158Y-85810256D01*
X103899499Y-85920943D01*
X103899499Y-85920945D01*
X103899499Y-86089046D01*
X103899500Y-86089059D01*
X103899500Y-89420234D01*
X103879815Y-89487273D01*
X103878602Y-89489125D01*
X103790609Y-89620814D01*
X103790602Y-89620827D01*
X103730264Y-89766498D01*
X103730261Y-89766510D01*
X103699500Y-89921153D01*
X100000500Y-89921153D01*
X100000500Y-81647844D01*
X101800000Y-81647844D01*
X101806401Y-81707372D01*
X101806403Y-81707379D01*
X101856645Y-81842086D01*
X101856649Y-81842093D01*
X101942809Y-81957187D01*
X101942812Y-81957190D01*
X102057906Y-82043350D01*
X102057913Y-82043354D01*
X102192620Y-82093596D01*
X102192627Y-82093598D01*
X102252155Y-82099999D01*
X102252172Y-82100000D01*
X102950000Y-82100000D01*
X103450000Y-82100000D01*
X104147828Y-82100000D01*
X104147844Y-82099999D01*
X104207372Y-82093598D01*
X104207379Y-82093596D01*
X104342086Y-82043354D01*
X104342093Y-82043350D01*
X104457187Y-81957190D01*
X104457190Y-81957187D01*
X104543350Y-81842093D01*
X104543354Y-81842086D01*
X104593596Y-81707379D01*
X104593598Y-81707372D01*
X104599999Y-81647844D01*
X125100000Y-81647844D01*
X125106401Y-81707372D01*
X125106403Y-81707379D01*
X125156645Y-81842086D01*
X125156649Y-81842093D01*
X125242809Y-81957187D01*
X125242812Y-81957190D01*
X125357906Y-82043350D01*
X125357913Y-82043354D01*
X125492620Y-82093596D01*
X125492627Y-82093598D01*
X125552155Y-82099999D01*
X125552172Y-82100000D01*
X126250000Y-82100000D01*
X126750000Y-82100000D01*
X127447828Y-82100000D01*
X127447844Y-82099999D01*
X127507372Y-82093598D01*
X127507379Y-82093596D01*
X127642086Y-82043354D01*
X127642093Y-82043350D01*
X127757187Y-81957190D01*
X127757190Y-81957187D01*
X127843350Y-81842093D01*
X127843354Y-81842086D01*
X127893596Y-81707379D01*
X127893598Y-81707372D01*
X127899999Y-81647844D01*
X127900000Y-81647827D01*
X127900000Y-80750000D01*
X126750000Y-80750000D01*
X126750000Y-82100000D01*
X126250000Y-82100000D01*
X126250000Y-80750000D01*
X125100000Y-80750000D01*
X125100000Y-81647844D01*
X104599999Y-81647844D01*
X104600000Y-81647827D01*
X104600000Y-80750000D01*
X103450000Y-80750000D01*
X103450000Y-82100000D01*
X102950000Y-82100000D01*
X102950000Y-80750000D01*
X101800000Y-80750000D01*
X101800000Y-81647844D01*
X100000500Y-81647844D01*
X100000500Y-79352155D01*
X101800000Y-79352155D01*
X101800000Y-80250000D01*
X102950000Y-80250000D01*
X103450000Y-80250000D01*
X104600000Y-80250000D01*
X104600000Y-79352172D01*
X104599999Y-79352155D01*
X125100000Y-79352155D01*
X125100000Y-80250000D01*
X126250000Y-80250000D01*
X126750000Y-80250000D01*
X127900000Y-80250000D01*
X127900000Y-79352172D01*
X127899999Y-79352155D01*
X127893598Y-79292627D01*
X127893596Y-79292620D01*
X127843354Y-79157913D01*
X127843350Y-79157906D01*
X127757190Y-79042812D01*
X127757187Y-79042809D01*
X127642093Y-78956649D01*
X127642086Y-78956645D01*
X127507379Y-78906403D01*
X127507372Y-78906401D01*
X127447844Y-78900000D01*
X126750000Y-78900000D01*
X126750000Y-80250000D01*
X126250000Y-80250000D01*
X126250000Y-78900000D01*
X125552155Y-78900000D01*
X125492627Y-78906401D01*
X125492620Y-78906403D01*
X125357913Y-78956645D01*
X125357906Y-78956649D01*
X125242812Y-79042809D01*
X125242809Y-79042812D01*
X125156649Y-79157906D01*
X125156645Y-79157913D01*
X125106403Y-79292620D01*
X125106401Y-79292627D01*
X125100000Y-79352155D01*
X104599999Y-79352155D01*
X104593598Y-79292627D01*
X104593596Y-79292620D01*
X104543354Y-79157913D01*
X104543350Y-79157906D01*
X104457190Y-79042812D01*
X104457187Y-79042809D01*
X104342093Y-78956649D01*
X104342086Y-78956645D01*
X104207379Y-78906403D01*
X104207372Y-78906401D01*
X104147844Y-78900000D01*
X103450000Y-78900000D01*
X103450000Y-80250000D01*
X102950000Y-80250000D01*
X102950000Y-78900000D01*
X102252155Y-78900000D01*
X102192627Y-78906401D01*
X102192620Y-78906403D01*
X102057913Y-78956645D01*
X102057906Y-78956649D01*
X101942812Y-79042809D01*
X101942809Y-79042812D01*
X101856649Y-79157906D01*
X101856645Y-79157913D01*
X101806403Y-79292620D01*
X101806401Y-79292627D01*
X101800000Y-79352155D01*
X100000500Y-79352155D01*
X100000500Y-76624500D01*
X100020185Y-76557461D01*
X100072989Y-76511706D01*
X100124500Y-76500500D01*
X128875500Y-76500500D01*
X128942539Y-76520185D01*
G37*
%TD.AperFunction*%
%TD*%
M02*
